<svg id="Layer_1" data-name="Layer 1" xmlns="http://www.w3.org/2000/svg" width="439.97" height="250" viewBox="0 0 439.97 250"><title>Meru_Outstation_Map_Blocks-v2</title><path d="M440,108.73V278.17A17.82,17.82,0,0,1,422.15,296H413.2a26.26,26.26,0,0,0-26.15,23.91c-.07.78-.11,1.56-.11,2.36V375.8a26.26,26.26,0,0,0,26.26,26.26h-4.9A31.67,31.67,0,0,1,440,433.73v82.44A17.82,17.82,0,0,1,422.15,534H377.43a62.55,62.55,0,0,0-50.64,99.24q1.66,2.29,3.52,4.42a62.37,62.37,0,0,0,46.14,21.41,16.79,16.79,0,0,1,2.25.17c8.06,1.2,52,10.13,60.4,63.67.13.82.24,1.64.34,2.48s.18,1.66.25,2.5q.29,3.23.28,6.52v359l-.63.4-3.89,2.49-4.32,2.76,0,0-3.68,2.35-57.78,37a19.45,19.45,0,0,1-2.2,1.2,37.27,37.27,0,0,0-21.38,33.72v137.4A75.32,75.32,0,0,0,421.52,1386a17.41,17.41,0,0,1,13.5,6.38,22.87,22.87,0,0,1,1.42,2,21.14,21.14,0,0,1,2.34,4.8,21.93,21.93,0,0,1,1.19,7.15v303.3a40.4,40.4,0,0,1-40.4,40.4H153.43a153.47,153.47,0,0,1-116.6-53.69h0A153.47,153.47,0,0,1,0,1596.55V1207.78a22,22,0,0,1,3.36-11.71,17.59,17.59,0,0,1,10.46-7.46,35.79,35.79,0,0,0,7.36-2.86l.87,0H21.2a36.08,36.08,0,0,0,13.64-12.51,36.31,36.31,0,0,0,2.5-4.64,35.73,35.73,0,0,0,3.13-14.67v-48.38a36,36,0,0,0-1.81-11.29,35.54,35.54,0,0,0-1.89-4.6c-3.47-7-15.77-12.77-25.21-16.26A17.81,17.81,0,0,1,0,1056.68V699.58a49.7,49.7,0,0,1,14.55-35.12l14.64-14.63a35,35,0,0,0,0-49.5l-18.4-18.41A36.79,36.79,0,0,1,0,555.89V17.82A17.82,17.82,0,0,1,17.8,0H299.67a162.64,162.64,0,0,1,115,47.63h0A86.42,86.42,0,0,1,440,108.73Z" style="fill:#f4cc36"/><path d="M440,189.41v5H410a2.48,2.48,0,0,1-1.84-.81l-78.26-85.19H129.47v21.33a2.5,2.5,0,0,1-.93,1.95L1.54,234.22a2.5,2.5,0,0,1-1.57.55v-5.71l124.5-100.51V0h5V103.41H312.4V0h5V103.41H331a2.48,2.48,0,0,1,1.84.81l78.26,85.19Z" style="fill:#ffda52"/><path d="M220.08,185v98.77A21.24,21.24,0,0,1,199.17,305l-8.5.13a25,25,0,0,0-24.58,25v20.18a25.17,25.17,0,0,0,13.36,22.23l29.92,14.59a19.73,19.73,0,0,1,11.08,17.75l-.35,636.3A25.82,25.82,0,0,0,245.5,1067h0a27.24,27.24,0,0,1,26.8,27.21l.07,55A30.8,30.8,0,0,1,252.68,1178l-12.7,4.92a31.14,31.14,0,0,0-19.9,29v98.12a25.53,25.53,0,0,1-24.8,25.53l-8.36.24a26.13,26.13,0,0,0-25.38,26.39l.39,37.6a31.25,31.25,0,0,0,15.53,26.68l22.93,13.35a39.65,39.65,0,0,1,19.69,34.26V1599" style="fill:none;stroke:#282460;stroke-linecap:round;stroke-miterlimit:10;stroke-width:10px"/><path d="M220.08,185v98.77A21.24,21.24,0,0,1,199.17,305l-8.5.13a25,25,0,0,0-24.58,25v20.18a25.17,25.17,0,0,0,13.36,22.23l29.92,14.59a19.73,19.73,0,0,1,11.08,17.75l-.35,636.3A25.82,25.82,0,0,0,245.5,1067h0a27.24,27.24,0,0,1,26.8,27.21l.07,55A30.8,30.8,0,0,1,252.68,1178l-12.7,4.92a31.14,31.14,0,0,0-19.9,29v98.12a25.53,25.53,0,0,1-24.8,25.53l-8.36.24a26.13,26.13,0,0,0-25.38,26.39l.39,37.6a31.25,31.25,0,0,0,15.53,26.68l22.93,13.35a39.65,39.65,0,0,1,19.69,34.26V1599" style="fill:none;stroke:#fff;stroke-linecap:round;stroke-miterlimit:10;stroke-width:2px;stroke-dasharray:6,8"/><circle cx="219.97" cy="186.33" r="7.56" style="fill:#fff"/></svg>