<svg id="Layer_1" data-name="Layer 1" xmlns="http://www.w3.org/2000/svg" width="439.96" height="249.88" viewBox="0 0 439.96 249.88"><defs><style>.cls-1{fill:#f4cc36;}.cls-2{fill:#ffda52;}.cls-3{fill:#282460;}.cls-4{fill:#fff;}</style></defs><title>Artboard 14</title><path class="cls-1" d="M440-177.06V46H413.22a26.26,26.26,0,0,0-26.15,23.91c-.07.78-.11,1.56-.11,2.36V125.8a26.26,26.26,0,0,0,26.26,26.26h-4.9A31.67,31.67,0,0,1,440,183.73V284H377.45a62.55,62.55,0,0,0-50.64,99.24q1.67,2.29,3.52,4.42a62.37,62.37,0,0,0,47.12,21.42s52.37,4.83,61.67,63.83c.13.82.24,1.64.34,2.48s.18,1.66.25,2.5q.29,3.23.28,6.52v359l-.63.4-3.89,2.49L431.15,849l0,0-3.68,2.35-58.84,37.64a37.29,37.29,0,0,0-22.52,34.24v137.4A75.32,75.32,0,0,0,421.39,1136h5.17a22,22,0,0,1,9.9,8.35,21.14,21.14,0,0,1,2.34,4.8,21.93,21.93,0,0,1,1.19,7.15v303.3a40.4,40.4,0,0,1-40.4,40.4H71.68a35.52,35.52,0,0,0-5-6.32L0,1427V957.78a22,22,0,0,1,9.82-18.35,35.65,35.65,0,0,0,11.36-3.68l.87,0h-.82a36.08,36.08,0,0,0,13.64-12.51,36.31,36.31,0,0,0,2.5-4.64,35.73,35.73,0,0,0,3.13-14.67V815.53a36,36,0,0,0-1.81-11.29,35.54,35.54,0,0,0-1.89-4.6,35.88,35.88,0,0,0-32.2-20H0V429l29.19-29.18a35,35,0,0,0,0-49.5L0,321.14V-209.6A40.4,40.4,0,0,1,40.39-250H367.05Z"/><path class="cls-2" d="M295.49,214.58V74.91H387V72.27c0-.8,0-1.58.11-2.36H0v5H95.82V185.37l-29.2,29.21H0v5H67.66a2.47,2.47,0,0,0,1.76-.74l30.67-30.66a2.51,2.51,0,0,0,.73-1.77V74.91H290.49V217.08a2.5,2.5,0,0,0,2.5,2.5H440v-5Z"/><path class="cls-3" d="M275.27,932.78V797.64c0-10.19-4.09-16.17-7.52-19.4-7.2-6.77-16.73-6.81-18.78-6.73-7.15,0-12.57-1.92-16.11-5.62-5.75-6-5.38-15.39-5.38-15.44s0-.3,0-.45V181.16c0-8.26-2.67-15.29-7.73-20.32-8.19-8.15-19.56-8.33-20.77-8.31H154.37c-8.5,0-9.9-7.81-10.13-10.4v-57c0-6,1.42-10.25,4.22-12.76C152.6,68.69,159,69.35,159,69.35a7.73,7.73,0,0,0,1,.06h38.5c9.12,0,16.37-2.8,21.56-8.32,7.55-8,7.53-18.68,7.44-20.86V-47.59a7.5,7.5,0,0,0-7.5-7.5,7.5,7.5,0,0,0-7.5,7.5v88c0,.15,0,.24,0,.4s.22,6.24-3.45,10.07c-2.24,2.34-5.8,3.53-10.57,3.53h-38.1c-2.78-.26-13.41-.68-21.76,6.66-6.23,5.48-9.39,13.58-9.39,24.09v57.25c0,.14,0,.28,0,.42.56,9.93,7.71,24.7,25.11,24.7H199c.06,0,6.31.14,10.15,3.95,2.22,2.21,3.3,5.38,3.3,9.68V749.85c-.08,2.26-.15,16.12,9.38,26.25,6.51,6.91,15.68,10.41,27.27,10.41h.38c1.39,0,5.52.33,8,2.72,1.82,1.75,2.74,4.58,2.74,8.42V933.41a7.35,7.35,0,0,0,.16,1.55s.67,4.15-1.4,6.71-6.28,3.07-9.69,3.12c-3.19-.37-15.27-1.11-24.92,7.05-7.91,6.7-11.93,17.22-11.93,31.26v113.56a6.71,6.71,0,0,0,.09,1.1c0,.06.66,5.66-2.73,9.6-2.66,3.08-7.41,4.68-14.13,4.75-3.31-.42-15.26-1.29-24.85,6.8-7.41,6.25-11.17,15.91-11.17,28.71v47.11c-.51,3.18-1.41,13,5.1,21.09,5.34,6.63,13.85,10,25.3,10a6.46,6.46,0,0,0,1.08-.08c.09,0,8.62-1.11,14.56,4.07,4.48,3.9,6.75,10.7,6.75,20.21v65.41a7.5,7.5,0,0,0,15,0V1250c0-14.15-4.06-24.81-12.08-31.68-10-8.56-22.59-7.85-25.74-7.52-4.5,0-10.28-.86-13.13-4.32-3.08-3.74-2-9.47-2-9.47a7.19,7.19,0,0,0,.17-1.6v-47.79c0-8.12,1.94-13.9,5.77-17.18,5.38-4.62,13.45-3.43,13.47-3.43a7.66,7.66,0,0,0,1.26.11c11.56,0,20.31-3.36,26-10,7-8.15,6.58-18.12,6.28-20.94V983.1c0-9.36,2.2-16,6.53-19.73,5.6-4.82,13.6-3.68,13.62-3.68a7.32,7.32,0,0,0,1.24.1c9.8,0,17.13-2.92,21.8-8.67C276.34,944.13,275.7,935.67,275.27,932.78Zm-56-980.37a.75.75,0,0,1,.75-.75.74.74,0,0,1,.75.75v9a.75.75,0,0,1-.75.75.76.76,0,0,1-.75-.75Zm0,18a.75.75,0,0,1,.75-.75.74.74,0,0,1,.75.75v9a.75.75,0,0,1-.75.75.76.76,0,0,1-.75-.75Zm0,18a.75.75,0,0,1,.75-.75.74.74,0,0,1,.75.75v9a.75.75,0,0,1-.75.75.76.76,0,0,1-.75-.75Zm0,18a.75.75,0,1,1,1.5,0v9a.75.75,0,0,1-1.5,0Zm0,18a.75.75,0,1,1,1.5,0v9a.75.75,0,0,1-1.5,0ZM217.15,50.8a23.71,23.71,0,0,0,2.07-8.43.76.76,0,0,1,.79-.71.74.74,0,0,1,.7.8,25.19,25.19,0,0,1-2.2,9,.75.75,0,0,1-.68.44.88.88,0,0,1-.32-.07A.75.75,0,0,1,217.15,50.8Zm-13.29,9.9a19.32,19.32,0,0,0,7.93-3.27.76.76,0,0,1,1.05.16.75.75,0,0,1-.17,1,20.63,20.63,0,0,1-8.54,3.53l-.13,0a.76.76,0,0,1-.74-.62A.74.74,0,0,1,203.86,60.7ZM186,61.16h9a.75.75,0,0,1,0,1.5h-9a.75.75,0,0,1,0-1.5Zm-18,0h9a.75.75,0,0,1,0,1.5h-9a.75.75,0,0,1,0-1.5ZM149.91,62.3a26.07,26.07,0,0,1,9.16-1.22.76.76,0,0,1,.71.79.74.74,0,0,1-.79.71,24.66,24.66,0,0,0-8.61,1.14.59.59,0,0,1-.23,0,.74.74,0,0,1-.71-.51A.75.75,0,0,1,149.91,62.3ZM136,85.16c0-.32,0-.63,0-.93a.76.76,0,0,1,.77-.74.75.75,0,0,1,.73.77c0,.29,0,.59,0,.9v8.09a.75.75,0,0,1-1.5,0Zm0,17.09a.75.75,0,0,1,1.5,0v9a.75.75,0,0,1-1.5,0Zm0,18a.75.75,0,1,1,1.5,0v9a.75.75,0,0,1-1.5,0Zm1.92,27.67a.54.54,0,0,1-.22,0,.74.74,0,0,1-.71-.54,22.72,22.72,0,0,1-1-5v-4.16a.75.75,0,1,1,1.5,0v4.12a23.33,23.33,0,0,0,.92,4.6A.74.74,0,0,1,137.91,147.94Zm.19-71.8a.66.66,0,0,1-.23,0,.75.75,0,0,1-.49-.94,20.21,20.21,0,0,1,4.64-8,.75.75,0,0,1,1.08,1,18.74,18.74,0,0,0-4.29,7.41A.75.75,0,0,1,138.1,76.14Zm12.29,83.54a.75.75,0,0,1-.73.57l-.17,0a15.84,15.84,0,0,1-8-4.67.75.75,0,0,1,0-1.06.74.74,0,0,1,1.06,0,14.41,14.41,0,0,0,7.28,4.23A.75.75,0,0,1,150.39,159.68Zm17.24,1.1h-9a.75.75,0,0,1,0-1.5h9a.75.75,0,0,1,0,1.5Zm18,0h-9a.75.75,0,0,1,0-1.5h9a.75.75,0,0,1,0,1.5Zm18.75,0a.76.76,0,0,1-.73.59l-.16,0a23.79,23.79,0,0,0-4.52-.56h-4.32a.75.75,0,0,1,0-1.5H199a24.7,24.7,0,0,1,4.84.6A.74.74,0,0,1,204.4,160.77Zm13.72,10.65a.8.8,0,0,1-.33.08.76.76,0,0,1-.68-.42,16.76,16.76,0,0,0-5.61-6.4.76.76,0,0,1-.19-1.05.75.75,0,0,1,1-.19,18.32,18.32,0,0,1,6.11,7A.75.75,0,0,1,218.12,171.42Zm1.78,7.23a.76.76,0,0,1,.79.71c0,.58.05,1.18.05,1.8v7.25a.75.75,0,0,1-1.5,0v-7.25c0-.59,0-1.16,0-1.71A.75.75,0,0,1,219.9,178.65ZM220,711.27a.76.76,0,0,1-.75-.75v-9a.75.75,0,0,1,1.5,0v9A.75.75,0,0,1,220,711.27Zm.75,8.25v9a.75.75,0,0,1-1.5,0v-9a.75.75,0,0,1,1.5,0ZM220,693.27a.76.76,0,0,1-.75-.75v-9a.75.75,0,0,1,1.5,0v9A.75.75,0,0,1,220,693.27Zm0-18a.76.76,0,0,1-.75-.75v-9a.75.75,0,0,1,1.5,0v9A.75.75,0,0,1,220,675.27Zm0-18a.76.76,0,0,1-.75-.75v-9a.75.75,0,0,1,1.5,0v9A.75.75,0,0,1,220,657.27Zm0-18a.76.76,0,0,1-.75-.75v-9a.75.75,0,0,1,1.5,0v9A.75.75,0,0,1,220,639.27Zm0-18a.76.76,0,0,1-.75-.75v-9a.75.75,0,0,1,1.5,0v9A.75.75,0,0,1,220,621.27Zm0-18a.76.76,0,0,1-.75-.75v-9a.75.75,0,0,1,1.5,0v9A.75.75,0,0,1,220,603.27Zm0-18a.76.76,0,0,1-.75-.75v-9a.75.75,0,0,1,1.5,0v9A.75.75,0,0,1,220,585.27Zm0-18a.76.76,0,0,1-.75-.75v-9a.75.75,0,0,1,1.5,0v9A.75.75,0,0,1,220,567.27Zm0-18a.76.76,0,0,1-.75-.75v-9a.75.75,0,0,1,1.5,0v9A.75.75,0,0,1,220,549.27Zm0-18a.76.76,0,0,1-.75-.75v-9a.75.75,0,0,1,1.5,0v9A.75.75,0,0,1,220,531.27Zm0-18a.76.76,0,0,1-.75-.75v-9a.75.75,0,0,1,1.5,0v9A.75.75,0,0,1,220,513.27Zm0-18a.76.76,0,0,1-.75-.75v-9a.75.75,0,0,1,1.5,0v9A.75.75,0,0,1,220,495.27Zm0-18a.76.76,0,0,1-.75-.75v-9a.75.75,0,0,1,1.5,0v9A.75.75,0,0,1,220,477.27Zm0-18a.76.76,0,0,1-.75-.75v-9a.75.75,0,0,1,1.5,0v9A.75.75,0,0,1,220,459.27Zm0-18a.76.76,0,0,1-.75-.75v-9a.75.75,0,0,1,1.5,0v9A.75.75,0,0,1,220,441.27Zm0-18a.76.76,0,0,1-.75-.75v-9a.75.75,0,0,1,1.5,0v9A.75.75,0,0,1,220,423.27Zm0-18a.76.76,0,0,1-.75-.75v-9a.75.75,0,0,1,1.5,0v9A.75.75,0,0,1,220,405.27Zm0-18a.76.76,0,0,1-.75-.75v-9a.75.75,0,0,1,1.5,0v9A.75.75,0,0,1,220,387.27Zm0-18a.76.76,0,0,1-.75-.75v-9a.75.75,0,0,1,1.5,0v9A.75.75,0,0,1,220,369.27Zm0-18a.76.76,0,0,1-.75-.75v-9a.75.75,0,0,1,1.5,0v9A.75.75,0,0,1,220,351.27Zm0-18a.76.76,0,0,1-.75-.75v-9a.75.75,0,0,1,1.5,0v9A.75.75,0,0,1,220,333.27Zm0-18a.76.76,0,0,1-.75-.75v-9a.75.75,0,0,1,1.5,0v9A.75.75,0,0,1,220,315.27Zm0-18a.76.76,0,0,1-.75-.75v-9a.75.75,0,0,1,1.5,0v9A.75.75,0,0,1,220,297.27Zm0-18a.76.76,0,0,1-.75-.75v-9a.75.75,0,0,1,1.5,0v9A.75.75,0,0,1,220,279.27Zm0-18a.76.76,0,0,1-.75-.75v-9a.75.75,0,1,1,1.5,0v9A.75.75,0,0,1,220,261.27Zm0-18a.76.76,0,0,1-.75-.75v-9a.75.75,0,0,1,1.5,0v9A.75.75,0,0,1,220,243.24Zm0-18a.76.76,0,0,1-.75-.75v-9a.75.75,0,0,1,1.5,0v9A.75.75,0,0,1,220,225.21Zm0-18a.76.76,0,0,1-.75-.75v-9a.75.75,0,1,1,1.5,0v9A.75.75,0,0,1,220,207.19Zm-.75,539.33v-9a.75.75,0,0,1,1.5,0v9a.75.75,0,0,1-1.5,0Zm3.89,18.31a.73.73,0,0,1-.31.07.77.77,0,0,1-.69-.44,32.82,32.82,0,0,1-2.54-8.84.75.75,0,0,1,.63-.85.76.76,0,0,1,.85.64,31.46,31.46,0,0,0,2.43,8.43A.75.75,0,0,1,223.13,764.83ZM236,776.77a.75.75,0,0,1-.69.46.72.72,0,0,1-.29-.06,24.28,24.28,0,0,1-7.66-5.12.75.75,0,0,1,0-1.06.75.75,0,0,1,1.06,0,23.1,23.1,0,0,0,7.2,4.8A.74.74,0,0,1,236,776.77ZM253,780h-.12a19.59,19.59,0,0,0-3.14-.26c-.66,0-.53,0-.55,0a43.72,43.72,0,0,1-5.26-.3.74.74,0,0,1-.65-.83.77.77,0,0,1,.83-.66,43.21,43.21,0,0,0,5.06.29h.57a22.76,22.76,0,0,1,3.37.27.76.76,0,0,1,.63.86A.75.75,0,0,1,253,780Zm-32.22,535.4a.75.75,0,0,1-1.5,0v-3a.75.75,0,0,1,1.5,0Zm0-12a.75.75,0,0,1-1.5,0v-9a.75.75,0,0,1,1.5,0Zm0-18a.75.75,0,0,1-1.5,0v-9a.75.75,0,0,1,1.5,0Zm0-18a.75.75,0,0,1-1.5,0v-9a.75.75,0,0,1,1.5,0Zm-1.68-27.68a.75.75,0,0,1,.88.6,53.33,53.33,0,0,1,.8,9.07.74.74,0,0,1-.74.76h0a.76.76,0,0,1-.75-.75,51.29,51.29,0,0,0-.78-8.81A.75.75,0,0,1,219.06,1239.78Zm-8.3-15.59a.75.75,0,0,1,1.06,0,25.08,25.08,0,0,1,5.38,7.48.74.74,0,0,1-.36,1,.72.72,0,0,1-.32.08.76.76,0,0,1-.68-.43,23.33,23.33,0,0,0-5.05-7A.75.75,0,0,1,210.76,1224.19ZM195,1217.41a29.37,29.37,0,0,1,9,1.87.75.75,0,0,1-.27,1.45.65.65,0,0,1-.27,0,27.92,27.92,0,0,0-8.55-1.77.75.75,0,0,1,.08-1.5Zm-18.42-1.68a.75.75,0,0,1,1-.39,27.57,27.57,0,0,0,8.47,2,.77.77,0,0,1,.68.82.76.76,0,0,1-.75.68h-.07a29.26,29.26,0,0,1-8.93-2.15A.75.75,0,0,1,176.56,1215.73Zm-10.11-67.44a.75.75,0,0,1,1.5,0v9a.75.75,0,0,1-1.5,0Zm0,18a.75.75,0,0,1,1.5,0v9a.75.75,0,0,1-1.5,0Zm0,18a.75.75,0,0,1,1.5,0v9a.75.75,0,0,1-1.5,0Zm4.22,26.89a.73.73,0,0,1-1-.16,18.16,18.16,0,0,1-3.33-8.66.74.74,0,0,1,.64-.84.75.75,0,0,1,.84.65,17,17,0,0,0,3.05,8A.73.73,0,0,1,170.67,1211.18Zm.73-80a28.17,28.17,0,0,0-2.76,8.26.76.76,0,0,1-.74.62h-.14a.76.76,0,0,1-.6-.87,29.86,29.86,0,0,1,2.92-8.71.75.75,0,1,1,1.32.71Zm13.35-10.27a21.41,21.41,0,0,0-7.82,3.68.74.74,0,0,1-.45.15.76.76,0,0,1-.6-.29.75.75,0,0,1,.14-1,22.82,22.82,0,0,1,8.36-3.94.75.75,0,1,1,.37,1.45Zm17.83-1.17a43.41,43.41,0,0,1-7.38.6h-.12a16.07,16.07,0,0,0-1.63-.17.75.75,0,0,1,.1-1.5c.91.06,1.52.15,1.71.18a41.76,41.76,0,0,0,7.06-.58.75.75,0,0,1,.26,1.48Zm16.66-135.4a.75.75,0,0,1,1.5,0v9a.75.75,0,1,1-1.5,0Zm0,18a.75.75,0,0,1,1.5,0v9a.75.75,0,1,1-1.5,0Zm0,18a.75.75,0,0,1,1.5,0v9a.75.75,0,0,1-1.5,0Zm0,18a.75.75,0,0,1,1.5,0v9a.75.75,0,0,1-1.5,0Zm0,18a.75.75,0,0,1,1.5,0v9a.75.75,0,0,1-1.5,0Zm0,18a.75.75,0,0,1,1.5,0v9a.75.75,0,0,1-1.5,0Zm-1.34,35.89a18.61,18.61,0,0,1-6.63,6.47.76.76,0,0,1-1-.27.76.76,0,0,1,.27-1,17,17,0,0,0,6.11-6,.74.74,0,0,1,1-.25A.75.75,0,0,1,217.9,1110.26Zm2.84-8.82a.75.75,0,0,1-.74.68h-.08a.75.75,0,0,1-.67-.82,23.12,23.12,0,0,0,.12-2.35,17.15,17.15,0,0,0-.12-2.17s0-.08,0-.11v-4.29a.75.75,0,0,1,1.5,0v4.24a18.38,18.38,0,0,1,.13,2.33A23.26,23.26,0,0,1,220.74,1101.44ZM223.47,967a35.49,35.49,0,0,0-2.22,8.49.76.76,0,0,1-.74.65h-.11a.75.75,0,0,1-.64-.85,37.3,37.3,0,0,1,2.32-8.85.75.75,0,0,1,1-.41A.75.75,0,0,1,223.47,967Zm11.74-12.2a20.88,20.88,0,0,0-7.1,4.89.78.78,0,0,1-.55.23.76.76,0,0,1-.51-.2.75.75,0,0,1,0-1.06,22.2,22.2,0,0,1,7.6-5.24.75.75,0,1,1,.59,1.38Zm17.51-2a36.16,36.16,0,0,1-3.84.19h-.12a25.88,25.88,0,0,0-5-.15.75.75,0,1,1-.1-1.5,26.48,26.48,0,0,1,5.33.16,34.81,34.81,0,0,0,3.62-.18.76.76,0,0,1,.83.67A.75.75,0,0,1,252.72,952.85Zm15-155.06a.76.76,0,0,1,.75.75v9a.75.75,0,0,1-1.5,0v-9A.75.75,0,0,1,267.77,797.79Zm0,100.79a.74.74,0,0,1-.75-.75v-9a.75.75,0,0,1,1.5,0v9A.75.75,0,0,1,267.77,898.58Zm.75,8.28v9a.75.75,0,1,1-1.5,0v-9a.75.75,0,0,1,1.5,0Zm-.75-26.33a.74.74,0,0,1-.75-.75v-9a.75.75,0,0,1,1.5,0v9A.75.75,0,0,1,267.77,880.53Zm0-18a.75.75,0,0,1-.75-.75v-9a.75.75,0,0,1,1.5,0v9A.76.76,0,0,1,267.77,862.48Zm0-18a.75.75,0,0,1-.75-.75v-9a.75.75,0,1,1,1.5,0v9A.76.76,0,0,1,267.77,844.44Zm0-18.05a.75.75,0,0,1-.75-.75v-9a.75.75,0,0,1,1.5,0v9A.76.76,0,0,1,267.77,826.39Zm-7.13-44.27a.76.76,0,0,1,1.05-.16,15.82,15.82,0,0,1,5.51,7.48.74.74,0,0,1-.44,1,.82.82,0,0,1-.26,0,.75.75,0,0,1-.71-.49,14.32,14.32,0,0,0-5-6.78A.76.76,0,0,1,260.64,782.12Zm7,161a13.94,13.94,0,0,1-6.05,7.07.76.76,0,0,1-.38.11.75.75,0,0,1-.38-1.4,12.48,12.48,0,0,0,5.42-6.33.75.75,0,0,1,1-.42A.74.74,0,0,1,267.61,943.1Zm.36-8.39h-.11a.74.74,0,0,1-.74-.64c-.05-.31-.09-.49-.09-.51a.76.76,0,0,1,0-.15v-8.5a.75.75,0,1,1,1.5,0v8.42c0,.1.05.28.08.53A.75.75,0,0,1,268,934.71Z"/><path class="cls-4" d="M220,16.16a.75.75,0,0,0,.75-.75v-9a.75.75,0,1,0-1.5,0v9A.76.76,0,0,0,220,16.16Z"/><path class="cls-4" d="M220.74,215.45a.75.75,0,0,0-1.5,0v9a.75.75,0,1,0,1.5,0Z"/><path class="cls-4" d="M220.74,197.42a.75.75,0,1,0-1.5,0v9a.75.75,0,0,0,1.5,0Z"/><path class="cls-4" d="M220.74,233.47a.75.75,0,0,0-1.5,0v9a.75.75,0,0,0,1.5,0Z"/><path class="cls-4" d="M167.63,159.28h-9a.75.75,0,0,0,0,1.5h9a.75.75,0,0,0,0-1.5Z"/><path class="cls-4" d="M185.65,159.28h-9a.75.75,0,0,0,0,1.5h9a.75.75,0,0,0,0-1.5Z"/><path class="cls-4" d="M137.49,142.41v-4.12a.75.75,0,1,0-1.5,0v4.16a22.72,22.72,0,0,0,1,5,.74.74,0,0,0,.71.54.54.54,0,0,0,.22,0,.74.74,0,0,0,.5-.93A23.33,23.33,0,0,1,137.49,142.41Z"/><path class="cls-4" d="M143.08,67.14a.75.75,0,0,0-1.06,0,20.21,20.21,0,0,0-4.64,8,.75.75,0,0,0,.49.94.66.66,0,0,0,.23,0,.75.75,0,0,0,.71-.53,18.74,18.74,0,0,1,4.29-7.41A.75.75,0,0,0,143.08,67.14Z"/><path class="cls-4" d="M212.35,163.44a.75.75,0,0,0-1,.19.76.76,0,0,0,.19,1.05,16.76,16.76,0,0,1,5.61,6.4.76.76,0,0,0,.68.42.8.8,0,0,0,.33-.08.75.75,0,0,0,.34-1A18.32,18.32,0,0,0,212.35,163.44Z"/><path class="cls-4" d="M219.24,188.41a.75.75,0,0,0,1.5,0v-7.25c0-.62,0-1.22-.05-1.8a.76.76,0,0,0-.79-.71.75.75,0,0,0-.7.8c0,.55,0,1.12,0,1.71Z"/><path class="cls-4" d="M203.83,159.88a24.7,24.7,0,0,0-4.84-.6h-4.32a.75.75,0,0,0,0,1.5H199a23.79,23.79,0,0,1,4.52.56l.16,0a.76.76,0,0,0,.73-.59A.74.74,0,0,0,203.83,159.88Z"/><path class="cls-4" d="M136.74,130a.75.75,0,0,0,.75-.75v-9a.75.75,0,1,0-1.5,0v9A.76.76,0,0,0,136.74,130Z"/><path class="cls-4" d="M149.84,158.77a14.41,14.41,0,0,1-7.28-4.23.74.74,0,0,0-1.06,0,.75.75,0,0,0,0,1.06,15.84,15.84,0,0,0,8,4.67l.17,0a.75.75,0,0,0,.18-1.48Z"/><path class="cls-4" d="M217.51,51.8a.88.88,0,0,0,.32.07.75.75,0,0,0,.68-.44,25.19,25.19,0,0,0,2.2-9,.74.74,0,0,0-.7-.8.76.76,0,0,0-.79.71,23.71,23.71,0,0,1-2.07,8.43A.75.75,0,0,0,217.51,51.8Z"/><path class="cls-4" d="M204,62.19l.13,0a20.63,20.63,0,0,0,8.54-3.53.75.75,0,0,0,.17-1,.76.76,0,0,0-1.05-.16,19.32,19.32,0,0,1-7.93,3.27.74.74,0,0,0-.6.87A.76.76,0,0,0,204,62.19Z"/><path class="cls-4" d="M136.74,112a.74.74,0,0,0,.75-.75v-9a.75.75,0,0,0-1.5,0v9A.75.75,0,0,0,136.74,112Z"/><path class="cls-4" d="M220,34.16a.75.75,0,0,0,.75-.75v-9a.75.75,0,1,0-1.5,0v9A.76.76,0,0,0,220,34.16Z"/><path class="cls-4" d="M186,62.66h9a.75.75,0,0,0,0-1.5h-9a.75.75,0,0,0,0,1.5Z"/><path class="cls-4" d="M136.74,94a.75.75,0,0,0,.75-.75V85.16c0-.31,0-.61,0-.9a.75.75,0,0,0-.73-.77.76.76,0,0,0-.77.74c0,.3,0,.61,0,.93v8.09A.76.76,0,0,0,136.74,94Z"/><path class="cls-4" d="M150.15,63.76a.59.59,0,0,0,.23,0A24.66,24.66,0,0,1,159,62.58a.74.74,0,0,0,.79-.71.76.76,0,0,0-.71-.79,26.07,26.07,0,0,0-9.16,1.22.75.75,0,0,0-.47,1A.74.74,0,0,0,150.15,63.76Z"/><path class="cls-4" d="M168,62.66h9a.75.75,0,0,0,0-1.5h-9a.75.75,0,0,0,0,1.5Z"/></svg>