<svg id="Layer_1" data-name="Layer 1" xmlns="http://www.w3.org/2000/svg" width="439.98" height="250" viewBox="0 0 439.98 250"><defs><style>.cls-1{fill:#f4cc36;}.cls-2{fill:#ffda52;}.cls-3{fill:#282460;}.cls-4{fill:#fff;}</style></defs><title>Artboard 15</title><path class="cls-1" d="M440-427.06V-204H413.18A26.26,26.26,0,0,0,387-180.09c-.07.78-.11,1.56-.11,2.36v53.53a26.26,26.26,0,0,0,26.26,26.26h-4.9A31.67,31.67,0,0,1,440-66.27V34H377.41a62.55,62.55,0,0,0-50.64,99.24q1.67,2.3,3.52,4.42a62.37,62.37,0,0,0,47.12,21.42s52.37,4.83,61.67,63.83c.13.82.24,1.64.34,2.48s.18,1.66.25,2.5q.29,3.23.28,6.52v359l-.63.4-3.89,2.49L431.11,599l0,0-3.68,2.35-58.84,37.64A37.29,37.29,0,0,0,346,673.29v137.4A75.32,75.32,0,0,0,421.35,886h5.17a22,22,0,0,1,9.9,8.35,21.14,21.14,0,0,1,2.34,4.8A21.93,21.93,0,0,1,440,906.3v303.3a40.4,40.4,0,0,1-40.4,40.4H71.64a35.52,35.52,0,0,0-5-6.32L0,1177V707.78a22,22,0,0,1,9.82-18.35,35.65,35.65,0,0,0,11.36-3.68l.87,0h-.82a36.08,36.08,0,0,0,13.64-12.51,36.31,36.31,0,0,0,2.5-4.64,35.73,35.73,0,0,0,3.13-14.67V565.53a36,36,0,0,0-1.81-11.29,35.54,35.54,0,0,0-1.89-4.6,35.88,35.88,0,0,0-32.2-20H0V179l29.19-29.18a35,35,0,0,0,0-49.5L0,71.14V-459.6A40.4,40.4,0,0,1,40.35-500H367Z"/><path class="cls-2" d="M439.67,227.89l-.3,0H302.62a2.49,2.49,0,0,1-1.77-.73l-24.33-24.34a2.47,2.47,0,0,1-.74-1.76V138.24H136.7a2.46,2.46,0,0,1-1.54-.53L0,31.82v-6A2.33,2.33,0,0,1,1,26.32L137.56,133.24H326.77q1.67,2.3,3.52,4.42a2.49,2.49,0,0,1-1.6.58H280.78V200l22.87,22.87H439.08C439.33,224.55,439.53,226.21,439.67,227.89Z"/><path class="cls-3" d="M275.22,682.78V547.64c0-10.19-4.08-16.17-7.51-19.4-7.21-6.77-16.73-6.81-18.78-6.73-7.16,0-12.57-1.92-16.11-5.62-5.75-6-5.38-15.39-5.38-15.44s0-.3,0-.45V-68.84c0-8.26-2.67-15.29-7.73-20.32-8.2-8.15-19.56-8.33-20.77-8.31H154.33c-8.5,0-9.9-7.81-10.13-10.4v-57c0-6,1.42-10.25,4.22-12.76,4.14-3.71,10.57-3.05,10.57-3.05a7.73,7.73,0,0,0,1,.06h38.5c9.12,0,16.37-2.8,21.56-8.32,7.55-8,7.53-18.68,7.44-20.86v-87.82a7.5,7.5,0,0,0-7.5-7.5,7.5,7.5,0,0,0-7.5,7.5v88c0,.15,0,.24,0,.4s.23,6.24-3.44,10.07c-2.24,2.34-5.8,3.53-10.57,3.53h-38.1c-2.78-.26-13.41-.68-21.76,6.66-6.23,5.48-9.39,13.58-9.39,24.09v57.25c0,.14,0,.28,0,.42.57,9.93,7.72,24.7,25.12,24.7H199c.06,0,6.31.14,10.15,4,2.22,2.21,3.3,5.38,3.3,9.68V499.85c-.08,2.26-.15,16.12,9.38,26.25,6.51,6.91,15.68,10.41,27.27,10.41h.38c1.39,0,5.52.33,8,2.72,1.81,1.75,2.73,4.58,2.73,8.42V683.41a7.36,7.36,0,0,0,.17,1.55s.67,4.15-1.41,6.71-6.28,3.07-9.68,3.12c-3.2-.37-15.27-1.11-24.92,7.05-7.91,6.7-11.93,17.22-11.93,31.26V846.66a8,8,0,0,0,.08,1.1c0,.06.67,5.66-2.72,9.6-2.66,3.08-7.41,4.68-14.13,4.75-3.31-.42-15.26-1.29-24.85,6.8-7.41,6.25-11.17,15.91-11.17,28.71v47.11c-.51,3.18-1.42,13,5.1,21.09,5.33,6.63,13.84,10,25.3,10a6.54,6.54,0,0,0,1.08-.08c.09,0,8.62-1.11,14.56,4.07,4.48,3.9,6.75,10.7,6.75,20.21v65.41a7.5,7.5,0,0,0,15,0V1000c0-14.15-4.06-24.81-12.08-31.68-10-8.56-22.59-7.85-25.74-7.52-4.51,0-10.28-.86-13.13-4.32-3.08-3.74-2-9.47-2-9.47a7.83,7.83,0,0,0,.17-1.6V897.62c0-8.12,1.94-13.9,5.77-17.18,5.38-4.62,13.44-3.43,13.47-3.43a7.57,7.57,0,0,0,1.26.11c11.56,0,20.31-3.36,26-10,7-8.15,6.58-18.12,6.28-20.94V733.1c0-9.36,2.2-16,6.53-19.73,5.6-4.82,13.6-3.68,13.62-3.68a7.32,7.32,0,0,0,1.24.1c9.8,0,17.13-2.92,21.8-8.67C276.3,694.13,275.66,685.67,275.22,682.78Zm-56-980.37a.75.75,0,0,1,.75-.75.74.74,0,0,1,.75.75v9a.75.75,0,0,1-.75.75.76.76,0,0,1-.75-.75Zm0,18a.75.75,0,0,1,.75-.75.74.74,0,0,1,.75.75v9a.75.75,0,0,1-.75.75.76.76,0,0,1-.75-.75Zm0,18a.75.75,0,0,1,.75-.75.74.74,0,0,1,.75.75v9a.75.75,0,0,1-.75.75.76.76,0,0,1-.75-.75Zm0,18a.75.75,0,0,1,.75-.75.74.74,0,0,1,.75.75v9a.75.75,0,0,1-.75.75.76.76,0,0,1-.75-.75Zm0,18a.75.75,0,0,1,.75-.75.74.74,0,0,1,.75.75v9a.75.75,0,0,1-.75.75.76.76,0,0,1-.75-.75Zm-2.09,26.39a23.93,23.93,0,0,0,2.07-8.43.76.76,0,0,1,.79-.71.75.75,0,0,1,.7.8,25,25,0,0,1-2.21,9,.73.73,0,0,1-.68.44.87.87,0,0,1-.31-.07A.75.75,0,0,1,217.11-199.2Zm-13.29,9.9a19.32,19.32,0,0,0,7.93-3.27.75.75,0,0,1,1,.16.74.74,0,0,1-.16,1,20.69,20.69,0,0,1-8.54,3.53l-.14,0a.75.75,0,0,1-.73-.62A.74.74,0,0,1,203.82-189.3Zm-17.83.46h9a.75.75,0,0,1,.75.75.76.76,0,0,1-.75.75h-9a.76.76,0,0,1-.75-.75A.75.75,0,0,1,186-188.84Zm-18,0h9a.75.75,0,0,1,.75.75.76.76,0,0,1-.75.75h-9a.75.75,0,0,1-.75-.75A.74.74,0,0,1,168-188.84Zm-18.12,1.14a26.07,26.07,0,0,1,9.16-1.22.76.76,0,0,1,.71.79.74.74,0,0,1-.79.71,24.66,24.66,0,0,0-8.61,1.14.62.62,0,0,1-.23,0,.74.74,0,0,1-.71-.51A.74.74,0,0,1,149.87-187.7ZM136-164.84c0-.32,0-.63,0-.93a.76.76,0,0,1,.77-.74.75.75,0,0,1,.73.77c0,.29,0,.59,0,.9v8.09a.75.75,0,0,1-.75.75.76.76,0,0,1-.75-.75Zm0,17.09a.76.76,0,0,1,.75-.75.75.75,0,0,1,.75.75v9a.74.74,0,0,1-.75.75.75.75,0,0,1-.75-.75Zm0,18a.76.76,0,0,1,.75-.75.75.75,0,0,1,.75.75v9a.75.75,0,0,1-.75.75.76.76,0,0,1-.75-.75Zm1.92,27.67a.57.57,0,0,1-.22,0,.76.76,0,0,1-.72-.54,24.23,24.23,0,0,1-1-5v-4.16a.76.76,0,0,1,.75-.75.75.75,0,0,1,.75.75v4.12a22.47,22.47,0,0,0,.92,4.6A.74.74,0,0,1,137.87-102.06Zm.19-71.8a.62.62,0,0,1-.23,0,.75.75,0,0,1-.49-.94,20.21,20.21,0,0,1,4.64-8,.75.75,0,0,1,1.06,0,.75.75,0,0,1,0,1.06,18.74,18.74,0,0,0-4.29,7.41A.75.75,0,0,1,138.06-173.86Zm12.29,83.54a.75.75,0,0,1-.73.57l-.18,0a15.85,15.85,0,0,1-8-4.67.74.74,0,0,1,0-1.06.74.74,0,0,1,1.06,0,14.41,14.41,0,0,0,7.28,4.23A.75.75,0,0,1,150.35-90.32Zm17.24,1.1h-9a.74.74,0,0,1-.75-.75.75.75,0,0,1,.75-.75h9a.76.76,0,0,1,.75.75A.75.75,0,0,1,167.59-89.22Zm18,0h-9a.75.75,0,0,1-.75-.75.76.76,0,0,1,.75-.75h9a.75.75,0,0,1,.75.75A.74.74,0,0,1,185.61-89.22Zm18.75,0a.76.76,0,0,1-.73.59l-.16,0a23.79,23.79,0,0,0-4.52-.56h-4.32a.74.74,0,0,1-.75-.75.75.75,0,0,1,.75-.75H199a24.57,24.57,0,0,1,4.83.6A.74.74,0,0,1,204.36-89.23Zm13.72,10.65a.81.81,0,0,1-.34.08.74.74,0,0,1-.67-.42,16.76,16.76,0,0,0-5.61-6.4.76.76,0,0,1-.19-1.05.75.75,0,0,1,1-.19,18.21,18.21,0,0,1,6.1,7A.74.74,0,0,1,218.08-78.58Zm1.78,7.23a.77.77,0,0,1,.79.71c0,.58,0,1.18,0,1.8v7.25a.74.74,0,0,1-.75.75.75.75,0,0,1-.75-.75v-7.25c0-.59,0-1.16,0-1.71A.77.77,0,0,1,219.86-71.35ZM220,461.27a.76.76,0,0,1-.75-.75v-9a.75.75,0,0,1,1.5,0v9A.75.75,0,0,1,220,461.27Zm.75,8.25v9a.75.75,0,0,1-1.5,0v-9a.75.75,0,0,1,1.5,0ZM220,443.27a.76.76,0,0,1-.75-.75v-9a.75.75,0,0,1,1.5,0v9A.75.75,0,0,1,220,443.27Zm0-18a.76.76,0,0,1-.75-.75v-9a.75.75,0,0,1,1.5,0v9A.75.75,0,0,1,220,425.27Zm0-18a.76.76,0,0,1-.75-.75v-9a.75.75,0,0,1,1.5,0v9A.75.75,0,0,1,220,407.27Zm0-18a.76.76,0,0,1-.75-.75v-9a.75.75,0,0,1,1.5,0v9A.75.75,0,0,1,220,389.27Zm0-18a.76.76,0,0,1-.75-.75v-9a.75.75,0,0,1,1.5,0v9A.75.75,0,0,1,220,371.27Zm0-18a.76.76,0,0,1-.75-.75v-9a.75.75,0,0,1,1.5,0v9A.75.75,0,0,1,220,353.27Zm0-18a.76.76,0,0,1-.75-.75v-9a.75.75,0,0,1,1.5,0v9A.75.75,0,0,1,220,335.27Zm0-18a.76.76,0,0,1-.75-.75v-9a.75.75,0,0,1,1.5,0v9A.75.75,0,0,1,220,317.27Zm0-18a.76.76,0,0,1-.75-.75v-9a.75.75,0,0,1,1.5,0v9A.75.75,0,0,1,220,299.27Zm0-18a.76.76,0,0,1-.75-.75v-9a.75.75,0,0,1,1.5,0v9A.75.75,0,0,1,220,281.27Zm0-18a.76.76,0,0,1-.75-.75v-9a.75.75,0,0,1,1.5,0v9A.75.75,0,0,1,220,263.27Zm0-18a.76.76,0,0,1-.75-.75v-9a.75.75,0,0,1,1.5,0v9A.75.75,0,0,1,220,245.27Zm0-18a.76.76,0,0,1-.75-.75v-9a.75.75,0,0,1,1.5,0v9A.75.75,0,0,1,220,227.27Zm0-18a.76.76,0,0,1-.75-.75v-9a.75.75,0,0,1,1.5,0v9A.75.75,0,0,1,220,209.27Zm0-18a.76.76,0,0,1-.75-.75v-9a.75.75,0,0,1,1.5,0v9A.75.75,0,0,1,220,191.27Zm0-18a.76.76,0,0,1-.75-.75v-9a.75.75,0,0,1,1.5,0v9A.75.75,0,0,1,220,173.27Zm0-18a.76.76,0,0,1-.75-.75v-9a.75.75,0,0,1,1.5,0v9A.75.75,0,0,1,220,155.27Zm0-18a.76.76,0,0,1-.75-.75v-9a.75.75,0,1,1,1.5,0v9A.75.75,0,0,1,220,137.27Zm0-18a.76.76,0,0,1-.75-.75v-9a.75.75,0,1,1,1.5,0v9A.75.75,0,0,1,220,119.27Zm0-18a.76.76,0,0,1-.75-.75v-9a.75.75,0,1,1,1.5,0v9A.75.75,0,0,1,220,101.27Zm0-18a.76.76,0,0,1-.75-.75v-9a.75.75,0,1,1,1.5,0v9A.75.75,0,0,1,220,83.27Zm0-18a.76.76,0,0,1-.75-.75v-9a.75.75,0,1,1,1.5,0v9A.75.75,0,0,1,220,65.27Zm0-18a.76.76,0,0,1-.75-.75v-9a.75.75,0,1,1,1.5,0v9A.75.75,0,0,1,220,47.27Zm0-18a.76.76,0,0,1-.75-.75v-9a.75.75,0,0,1,1.5,0v9A.75.75,0,0,1,220,29.27Zm0-18a.76.76,0,0,1-.75-.75v-9a.75.75,0,0,1,1.5,0v9A.75.75,0,0,1,220,11.27Zm0-18a.76.76,0,0,1-.75-.75v-9a.76.76,0,0,1,.75-.75.75.75,0,0,1,.75.75v9A.75.75,0,0,1,220-6.76Zm0-18a.76.76,0,0,1-.75-.75v-9a.75.75,0,0,1,.75-.75.74.74,0,0,1,.75.75v9A.75.75,0,0,1,220-24.79Zm0-18a.76.76,0,0,1-.75-.75v-9a.76.76,0,0,1,.75-.75.75.75,0,0,1,.75.75v9A.75.75,0,0,1,220-42.81Zm-.75,539.33v-9a.75.75,0,0,1,1.5,0v9a.75.75,0,0,1-1.5,0Zm3.88,18.31a.67.67,0,0,1-.31.07.77.77,0,0,1-.68-.44,32.82,32.82,0,0,1-2.54-8.84.75.75,0,0,1,.63-.85.76.76,0,0,1,.85.64,31.1,31.1,0,0,0,2.43,8.43A.75.75,0,0,1,223.08,514.83ZM236,526.77a.75.75,0,0,1-.69.46.72.72,0,0,1-.29-.06,24.44,24.44,0,0,1-7.67-5.12.75.75,0,0,1,1.06-1.06,23.1,23.1,0,0,0,7.2,4.8A.75.75,0,0,1,236,526.77Zm17,3.24h-.12a19.59,19.59,0,0,0-3.14-.26,2.69,2.69,0,0,0-.56,0,43.68,43.68,0,0,1-5.25-.3.74.74,0,0,1-.65-.83A.76.76,0,0,1,244,528a43.08,43.08,0,0,0,5.06.29h.57a22.86,22.86,0,0,1,3.37.27.76.76,0,0,1,.63.86A.75.75,0,0,1,252.92,530Zm-32.22,535.4a.75.75,0,0,1-1.5,0v-3a.75.75,0,0,1,1.5,0Zm0-12a.75.75,0,0,1-1.5,0v-9a.75.75,0,0,1,1.5,0Zm0-18a.75.75,0,0,1-1.5,0v-9a.75.75,0,0,1,1.5,0Zm0-18a.75.75,0,0,1-1.5,0v-9a.75.75,0,0,1,1.5,0ZM219,989.78a.76.76,0,0,1,.88.6,54.37,54.37,0,0,1,.8,9.07.75.75,0,0,1-.74.76h0a.75.75,0,0,1-.75-.75,52.31,52.31,0,0,0-.78-8.81A.75.75,0,0,1,219,989.78Zm-8.3-15.59a.75.75,0,0,1,1.06,0,25.08,25.08,0,0,1,5.38,7.48.74.74,0,0,1-.36,1,.72.72,0,0,1-.32.08.76.76,0,0,1-.68-.43,23.33,23.33,0,0,0-5.05-7A.75.75,0,0,1,210.72,974.19Zm-15.79-6.78a29.44,29.44,0,0,1,9,1.87.75.75,0,0,1-.27,1.45.65.65,0,0,1-.27-.05,28,28,0,0,0-8.56-1.77.75.75,0,0,1,.08-1.5Zm-18.41-1.68a.74.74,0,0,1,1-.39,27.63,27.63,0,0,0,8.48,2,.75.75,0,0,1,.67.82.74.74,0,0,1-.74.68h-.07a29.4,29.4,0,0,1-8.94-2.15A.75.75,0,0,1,176.52,965.73Zm-10.11-67.44a.75.75,0,0,1,1.5,0v9a.75.75,0,0,1-1.5,0Zm0,18a.75.75,0,0,1,1.5,0v9a.75.75,0,0,1-1.5,0Zm0,18a.75.75,0,0,1,1.5,0v9a.75.75,0,0,1-1.5,0Zm4.22,26.89a.73.73,0,0,1-.44.15.77.77,0,0,1-.61-.31,18.37,18.37,0,0,1-3.33-8.66.75.75,0,0,1,1.49-.19,17,17,0,0,0,3,8A.73.73,0,0,1,170.63,961.18Zm.73-80a28.47,28.47,0,0,0-2.77,8.26.74.74,0,0,1-.73.62h-.14a.75.75,0,0,1-.6-.87A29.57,29.57,0,0,1,170,880.5a.75.75,0,1,1,1.32.71Zm13.34-10.27a21.36,21.36,0,0,0-7.81,3.68.78.78,0,0,1-.45.15.76.76,0,0,1-.6-.29.75.75,0,0,1,.14-1.05,22.82,22.82,0,0,1,8.36-3.94.75.75,0,1,1,.36,1.45Zm17.84-1.17a43.41,43.41,0,0,1-7.38.6H195a16.07,16.07,0,0,0-1.63-.17.75.75,0,1,1,.1-1.5c.91.06,1.52.15,1.71.18a41.76,41.76,0,0,0,7.06-.58.75.75,0,1,1,.26,1.48Zm16.66-135.4a.75.75,0,0,1,1.5,0v9a.75.75,0,0,1-1.5,0Zm0,18a.75.75,0,0,1,1.5,0v9a.75.75,0,0,1-1.5,0Zm0,18a.75.75,0,0,1,1.5,0v9a.75.75,0,0,1-1.5,0Zm0,18a.75.75,0,0,1,1.5,0v9a.75.75,0,0,1-1.5,0Zm0,18a.75.75,0,0,1,1.5,0v9a.75.75,0,0,1-1.5,0Zm0,18a.75.75,0,0,1,1.5,0v9a.75.75,0,0,1-1.5,0Zm-1.34,35.89a18.61,18.61,0,0,1-6.63,6.47.75.75,0,1,1-.76-1.3,17,17,0,0,0,6.1-5.95.75.75,0,0,1,1.29.78Zm2.84-8.82a.75.75,0,0,1-.74.68h-.08a.75.75,0,0,1-.67-.82,23.12,23.12,0,0,0,.12-2.35,17.15,17.15,0,0,0-.12-2.17s0-.08,0-.11v-4.29a.75.75,0,0,1,1.5,0v4.24a18.38,18.38,0,0,1,.13,2.33A23.26,23.26,0,0,1,220.7,851.44ZM223.43,717a35.49,35.49,0,0,0-2.22,8.49.76.76,0,0,1-.75.65h-.1a.75.75,0,0,1-.64-.85,36.83,36.83,0,0,1,2.32-8.85.75.75,0,1,1,1.39.57Zm11.74-12.2a21,21,0,0,0-7.11,4.89.74.74,0,0,1-.54.23.81.81,0,0,1-.52-.2.75.75,0,0,1,0-1.06,22.2,22.2,0,0,1,7.6-5.24.75.75,0,1,1,.59,1.38Zm17.51-2a36.16,36.16,0,0,1-3.84.19h-.13a25.74,25.74,0,0,0-5.05-.15.75.75,0,0,1-.09-1.5,26.53,26.53,0,0,1,5.33.16,34.81,34.81,0,0,0,3.62-.18.76.76,0,0,1,.83.67A.75.75,0,0,1,252.68,702.85Zm15-155.06a.75.75,0,0,1,.75.75v9a.75.75,0,0,1-1.5,0v-9A.76.76,0,0,1,267.72,547.79Zm0,100.79a.75.75,0,0,1-.75-.75v-9a.75.75,0,0,1,1.5,0v9A.74.74,0,0,1,267.72,648.58Zm.75,8.28v9a.75.75,0,0,1-1.5,0v-9a.75.75,0,0,1,1.5,0Zm-.75-26.33a.75.75,0,0,1-.75-.75v-9a.75.75,0,0,1,1.5,0v9A.74.74,0,0,1,267.72,630.53Zm0-18a.76.76,0,0,1-.75-.75v-9a.75.75,0,0,1,1.5,0v9A.75.75,0,0,1,267.72,612.48Zm0-18a.76.76,0,0,1-.75-.75v-9a.75.75,0,0,1,1.5,0v9A.75.75,0,0,1,267.72,594.44Zm0-18.05a.76.76,0,0,1-.75-.75v-9a.75.75,0,0,1,1.5,0v9A.75.75,0,0,1,267.72,576.39Zm-7.12-44.27a.76.76,0,0,1,1-.16,15.82,15.82,0,0,1,5.51,7.48.75.75,0,0,1-.45,1,.73.73,0,0,1-.25,0,.74.74,0,0,1-.71-.49,14.32,14.32,0,0,0-5-6.78A.74.74,0,0,1,260.6,532.12Zm7,161a13.94,13.94,0,0,1-6.05,7.07.76.76,0,0,1-.38.11.75.75,0,0,1-.38-1.4,12.48,12.48,0,0,0,5.42-6.33.75.75,0,1,1,1.39.55Zm.35-8.39h-.1a.74.74,0,0,1-.74-.64c-.05-.31-.09-.49-.09-.51a.77.77,0,0,1,0-.15v-8.5a.75.75,0,0,1,1.5,0v8.42c0,.1,0,.28.09.53A.75.75,0,0,1,267.92,684.71Z"/><path class="cls-4" d="M220.7,1.52a.75.75,0,0,0-1.5,0v9a.75.75,0,1,0,1.5,0Z"/><path class="cls-4" d="M220.7,19.52a.75.75,0,0,0-1.5,0v9a.75.75,0,1,0,1.5,0Z"/><path class="cls-4" d="M220.7,145.52a.75.75,0,0,0-1.5,0v9a.75.75,0,1,0,1.5,0Z"/><path class="cls-4" d="M220.7,163.52a.75.75,0,0,0-1.5,0v9a.75.75,0,1,0,1.5,0Z"/><path class="cls-4" d="M220.7,181.52a.75.75,0,0,0-1.5,0v9a.75.75,0,1,0,1.5,0Z"/><path class="cls-4" d="M220.7,199.52a.75.75,0,0,0-1.5,0v9a.75.75,0,1,0,1.5,0Z"/><path class="cls-4" d="M220.7,127.52a.75.75,0,1,0-1.5,0v9a.75.75,0,1,0,1.5,0Z"/><path class="cls-4" d="M220.7,73.52a.75.75,0,1,0-1.5,0v9a.75.75,0,0,0,1.5,0Z"/><path class="cls-4" d="M220.7,217.52a.75.75,0,0,0-1.5,0v9a.75.75,0,1,0,1.5,0Z"/><path class="cls-4" d="M220.7,109.52a.75.75,0,1,0-1.5,0v9a.75.75,0,0,0,1.5,0Z"/><path class="cls-4" d="M220.7,55.52a.75.75,0,1,0-1.5,0v9a.75.75,0,0,0,1.5,0Z"/><path class="cls-4" d="M220.7,91.52a.75.75,0,1,0-1.5,0v9a.75.75,0,0,0,1.5,0Z"/><path class="cls-4" d="M220.7,37.52a.75.75,0,1,0-1.5,0v9a.75.75,0,0,0,1.5,0Z"/><path class="cls-4" d="M220.7,235.52a.75.75,0,0,0-1.5,0v9a.75.75,0,1,0,1.5,0Z"/></svg>