<svg id="Layer_1" data-name="Layer 1" xmlns="http://www.w3.org/2000/svg" width="439.94" height="250" viewBox="0 0 439.94 250"><defs><style>.cls-1{fill:#f4cc36;}.cls-2{fill:#ffda52;}.cls-3{fill:#282460;}.cls-4{fill:#fff;}</style></defs><title>Artboard 17</title><path class="cls-1" d="M440-927.06V-704H413.23a26.26,26.26,0,0,0-26.15,23.91c-.07.78-.11,1.56-.11,2.36v53.53a26.26,26.26,0,0,0,26.26,26.26h-4.9A31.67,31.67,0,0,1,440-566.27V-466H377.46a62.33,62.33,0,0,0-44.22,18.32,62.35,62.35,0,0,0-18.31,44.22,62.28,62.28,0,0,0,11.89,36.7q1.67,2.29,3.52,4.42a62.37,62.37,0,0,0,47.12,21.42s52.37,4.83,61.67,63.83c.13.82.24,1.64.34,2.48s.18,1.66.25,2.5q.28,3.23.28,6.52v359l-.63.4-3.89,2.49L431.16,99l0,0-3.68,2.35L368.6,139.05a37.29,37.29,0,0,0-22.52,34.24v137.4A75.32,75.32,0,0,0,421.4,386h5.17a22,22,0,0,1,9.9,8.35,21.14,21.14,0,0,1,2.34,4.8A21.93,21.93,0,0,1,440,406.3V709.6A40.4,40.4,0,0,1,399.6,750H71.69a35.52,35.52,0,0,0-5-6.32L0,677V207.78a22,22,0,0,1,9.82-18.35,35.65,35.65,0,0,0,11.36-3.68l.87,0h-.82a36.08,36.08,0,0,0,13.64-12.51,36.31,36.31,0,0,0,2.5-4.64,35.73,35.73,0,0,0,3.13-14.67V65.53a36,36,0,0,0-1.81-11.29,35.54,35.54,0,0,0-1.89-4.6,35.88,35.88,0,0,0-32.2-20H0V-321l29.19-29.18a35,35,0,0,0,0-49.5L0-428.86V-959.6A40.4,40.4,0,0,1,40.4-1000H367.06Z"/><path class="cls-2" d="M312,96.27H435.48l3.89-2.49h0l.62-.4v-2a2.59,2.59,0,0,0-.63-.08H189.49V51.74A2.49,2.49,0,0,0,187,49.25H38.12a2.38,2.38,0,0,0-1.32.39,35.54,35.54,0,0,1,1.89,4.6H184.51V168.58H37.37a36.31,36.31,0,0,1-2.5,4.64,2.47,2.47,0,0,0,1.27.35H187a2.49,2.49,0,0,0,2.49-2.49V96.27H307V202.41a2.48,2.48,0,0,0,2.49,2.49h36.58v-5H312Z"/><path class="cls-3" d="M275.28,182.78V47.64c0-10.19-4.09-16.17-7.52-19.4-7.2-6.77-16.73-6.81-18.77-6.73-7.16,0-12.58-1.92-16.12-5.62-5.75-6-5.38-15.39-5.38-15.44s0-.3,0-.45V-568.84c0-8.26-2.67-15.29-7.73-20.32-8.19-8.15-19.56-8.33-20.77-8.31H154.38c-8.5,0-9.9-7.81-10.13-10.4v-57c0-6,1.42-10.25,4.22-12.76,4.14-3.71,10.57-3,10.57-3a7.73,7.73,0,0,0,1,.06h38.5c9.12,0,16.37-2.8,21.56-8.32,7.55-8,7.53-18.68,7.44-20.86v-87.82a7.5,7.5,0,0,0-7.5-7.5,7.5,7.5,0,0,0-7.5,7.5v88c0,.15,0,.24,0,.4s.22,6.24-3.45,10.07c-2.24,2.34-5.8,3.53-10.57,3.53H160.4c-2.78-.26-13.41-.68-21.76,6.66-6.23,5.48-9.39,13.58-9.39,24.09v57.25c0,.14,0,.28,0,.42.56,9.93,7.71,24.7,25.11,24.7h44.67c.06,0,6.31.14,10.15,4,2.22,2.21,3.3,5.38,3.3,9.68V-.15c-.08,2.26-.15,16.12,9.38,26.25,6.51,6.91,15.68,10.41,27.27,10.41h.38c1.39,0,5.52.33,8,2.72,1.82,1.75,2.74,4.58,2.74,8.42V183.41a7.35,7.35,0,0,0,.16,1.55s.67,4.15-1.4,6.71-6.28,3.07-9.69,3.12c-3.19-.37-15.27-1.11-24.92,7.05-7.91,6.7-11.93,17.22-11.93,31.26V346.66a6.71,6.71,0,0,0,.09,1.1c0,.06.66,5.66-2.73,9.6-2.66,3.08-7.41,4.68-14.13,4.75-3.31-.42-15.26-1.29-24.85,6.8-7.41,6.25-11.17,15.91-11.17,28.71v47.11c-.51,3.18-1.41,13,5.1,21.09,5.34,6.63,13.85,10,25.3,10a6.46,6.46,0,0,0,1.08-.08c.09,0,8.62-1.11,14.56,4.07,4.48,3.9,6.75,10.7,6.75,20.21v65.41a7.5,7.5,0,0,0,15,0V500c0-14.15-4.06-24.81-12.07-31.68-10-8.56-22.6-7.85-25.75-7.52-4.5-.05-10.28-.86-13.13-4.32-3.08-3.74-2-9.47-2-9.47a7.19,7.19,0,0,0,.17-1.6V397.62c0-8.12,1.94-13.9,5.77-17.18,5.38-4.62,13.45-3.43,13.47-3.43a7.66,7.66,0,0,0,1.26.11c11.56,0,20.31-3.36,26-10,7-8.15,6.58-18.12,6.28-20.94V233.1c0-9.36,2.2-16,6.53-19.73,5.6-4.82,13.6-3.68,13.62-3.68a7.32,7.32,0,0,0,1.24.1c9.8,0,17.13-2.92,21.8-8.67C276.35,194.13,275.71,185.67,275.28,182.78Zm-56-980.37a.75.75,0,0,1,.75-.75.74.74,0,0,1,.75.75v9a.75.75,0,0,1-.75.75.76.76,0,0,1-.75-.75Zm0,18a.75.75,0,0,1,.75-.75.74.74,0,0,1,.75.75v9a.75.75,0,0,1-.75.75.76.76,0,0,1-.75-.75Zm0,18a.75.75,0,0,1,.75-.75.74.74,0,0,1,.75.75v9a.75.75,0,0,1-.75.75.76.76,0,0,1-.75-.75Zm0,18a.75.75,0,0,1,.75-.75.74.74,0,0,1,.75.75v9a.75.75,0,0,1-.75.75.76.76,0,0,1-.75-.75Zm0,18a.75.75,0,0,1,.75-.75.74.74,0,0,1,.75.75v9a.75.75,0,0,1-.75.75.76.76,0,0,1-.75-.75Zm-2.09,26.39a23.71,23.71,0,0,0,2.07-8.43.76.76,0,0,1,.79-.71.74.74,0,0,1,.7.8,25.19,25.19,0,0,1-2.2,9,.75.75,0,0,1-.68.44.88.88,0,0,1-.32-.07A.75.75,0,0,1,217.16-699.2Zm-13.29,9.9a19.26,19.26,0,0,0,7.93-3.27.76.76,0,0,1,1,.16.75.75,0,0,1-.17,1,20.63,20.63,0,0,1-8.54,3.53l-.13,0a.76.76,0,0,1-.74-.62A.74.74,0,0,1,203.87-689.3Zm-17.83.46h9a.74.74,0,0,1,.75.75.75.75,0,0,1-.75.75h-9a.76.76,0,0,1-.75-.75A.75.75,0,0,1,186-688.84Zm-18,0h9a.74.74,0,0,1,.75.75.75.75,0,0,1-.75.75h-9a.76.76,0,0,1-.75-.75A.75.75,0,0,1,168-688.84Zm-18.12,1.14a26.07,26.07,0,0,1,9.16-1.22.76.76,0,0,1,.71.79.74.74,0,0,1-.78.71,24.68,24.68,0,0,0-8.62,1.14.59.59,0,0,1-.23,0,.74.74,0,0,1-.71-.51A.75.75,0,0,1,149.92-687.7ZM136-664.84c0-.32,0-.63,0-.93a.76.76,0,0,1,.77-.74.75.75,0,0,1,.73.77c0,.29,0,.59,0,.9v8.09a.75.75,0,0,1-.75.75.76.76,0,0,1-.75-.75Zm0,17.09a.76.76,0,0,1,.75-.75.75.75,0,0,1,.75.75v9a.74.74,0,0,1-.75.75.75.75,0,0,1-.75-.75Zm0,18a.76.76,0,0,1,.75-.75.75.75,0,0,1,.75.75v9a.75.75,0,0,1-.75.75.76.76,0,0,1-.75-.75Zm1.92,27.67a.54.54,0,0,1-.22,0,.74.74,0,0,1-.71-.54,22.72,22.72,0,0,1-1-5v-4.16a.76.76,0,0,1,.75-.75.75.75,0,0,1,.75.75v4.12a23.33,23.33,0,0,0,.92,4.6A.74.74,0,0,1,137.92-602.06Zm.19-71.8a.66.66,0,0,1-.23,0,.74.74,0,0,1-.48-.94,20.07,20.07,0,0,1,4.63-8,.75.75,0,0,1,1.06,0,.75.75,0,0,1,0,1.06,18.6,18.6,0,0,0-4.28,7.41A.77.77,0,0,1,138.11-673.86Zm12.29,83.54a.75.75,0,0,1-.73.57l-.17,0a15.84,15.84,0,0,1-8-4.67.75.75,0,0,1,0-1.06.74.74,0,0,1,1.06,0,14.41,14.41,0,0,0,7.28,4.23A.75.75,0,0,1,150.4-590.32Zm17.24,1.1h-9a.75.75,0,0,1-.75-.75.76.76,0,0,1,.75-.75h9a.75.75,0,0,1,.75.75A.74.74,0,0,1,167.64-589.22Zm18,0h-9a.75.75,0,0,1-.75-.75.76.76,0,0,1,.75-.75h9a.75.75,0,0,1,.75.75A.74.74,0,0,1,185.66-589.22Zm18.75,0a.76.76,0,0,1-.73.59l-.16,0a23.79,23.79,0,0,0-4.52-.56h-4.32a.75.75,0,0,1-.75-.75.76.76,0,0,1,.75-.75H199a24.7,24.7,0,0,1,4.84.6A.74.74,0,0,1,204.41-589.23Zm13.72,10.65a.8.8,0,0,1-.33.08.76.76,0,0,1-.68-.42,16.82,16.82,0,0,0-5.6-6.4.76.76,0,0,1-.2-1,.75.75,0,0,1,1-.19,18.32,18.32,0,0,1,6.11,7A.75.75,0,0,1,218.13-578.58Zm1.78,7.23a.76.76,0,0,1,.79.71c0,.58.05,1.18.05,1.8v7.25a.74.74,0,0,1-.75.75.75.75,0,0,1-.75-.75v-7.25c0-.59,0-1.16,0-1.71A.75.75,0,0,1,219.91-571.35ZM220-38.73a.76.76,0,0,1-.75-.75v-9a.75.75,0,0,1,.75-.75.74.74,0,0,1,.75.75v9A.75.75,0,0,1,220-38.73Zm.75,8.25v9a.75.75,0,0,1-.75.75.76.76,0,0,1-.75-.75v-9a.75.75,0,0,1,.75-.75A.74.74,0,0,1,220.75-30.48ZM220-56.73a.76.76,0,0,1-.75-.75v-9a.75.75,0,0,1,.75-.75.74.74,0,0,1,.75.75v9A.75.75,0,0,1,220-56.73Zm0-18a.76.76,0,0,1-.75-.75v-9a.75.75,0,0,1,.75-.75.74.74,0,0,1,.75.75v9A.75.75,0,0,1,220-74.73Zm0-18a.76.76,0,0,1-.75-.75v-9a.75.75,0,0,1,.75-.75.74.74,0,0,1,.75.75v9A.75.75,0,0,1,220-92.73Zm0-18a.76.76,0,0,1-.75-.75v-9a.75.75,0,0,1,.75-.75.74.74,0,0,1,.75.75v9A.75.75,0,0,1,220-110.73Zm0-18a.76.76,0,0,1-.75-.75v-9a.75.75,0,0,1,.75-.75.74.74,0,0,1,.75.75v9A.75.75,0,0,1,220-128.73Zm0-18a.76.76,0,0,1-.75-.75v-9a.75.75,0,0,1,.75-.75.74.74,0,0,1,.75.75v9A.75.75,0,0,1,220-146.73Zm0-18a.76.76,0,0,1-.75-.75v-9a.75.75,0,0,1,.75-.75.74.74,0,0,1,.75.75v9A.75.75,0,0,1,220-164.73Zm0-18a.76.76,0,0,1-.75-.75v-9a.75.75,0,0,1,.75-.75.74.74,0,0,1,.75.75v9A.75.75,0,0,1,220-182.73Zm0-18a.76.76,0,0,1-.75-.75v-9a.75.75,0,0,1,.75-.75.74.74,0,0,1,.75.75v9A.75.75,0,0,1,220-200.73Zm0-18a.76.76,0,0,1-.75-.75v-9a.75.75,0,0,1,.75-.75.74.74,0,0,1,.75.75v9A.75.75,0,0,1,220-218.73Zm0-18a.76.76,0,0,1-.75-.75v-9a.75.75,0,0,1,.75-.75.74.74,0,0,1,.75.75v9A.75.75,0,0,1,220-236.73Zm0-18a.76.76,0,0,1-.75-.75v-9a.75.75,0,0,1,.75-.75.74.74,0,0,1,.75.75v9A.75.75,0,0,1,220-254.73Zm0-18a.76.76,0,0,1-.75-.75v-9a.75.75,0,0,1,.75-.75.74.74,0,0,1,.75.75v9A.75.75,0,0,1,220-272.73Zm0-18a.76.76,0,0,1-.75-.75v-9a.75.75,0,0,1,.75-.75.74.74,0,0,1,.75.75v9A.75.75,0,0,1,220-290.73Zm0-18a.76.76,0,0,1-.75-.75v-9a.75.75,0,0,1,.75-.75.74.74,0,0,1,.75.75v9A.75.75,0,0,1,220-308.73Zm0-18a.76.76,0,0,1-.75-.75v-9a.75.75,0,0,1,.75-.75.74.74,0,0,1,.75.75v9A.75.75,0,0,1,220-326.73Zm0-18a.76.76,0,0,1-.75-.75v-9a.75.75,0,0,1,.75-.75.74.74,0,0,1,.75.75v9A.75.75,0,0,1,220-344.73Zm0-18a.76.76,0,0,1-.75-.75v-9a.75.75,0,0,1,.75-.75.74.74,0,0,1,.75.75v9A.75.75,0,0,1,220-362.73Zm0-18a.76.76,0,0,1-.75-.75v-9a.75.75,0,0,1,.75-.75.74.74,0,0,1,.75.75v9A.75.75,0,0,1,220-380.73Zm0-18a.76.76,0,0,1-.75-.75v-9a.75.75,0,0,1,.75-.75.74.74,0,0,1,.75.75v9A.75.75,0,0,1,220-398.73Zm0-18a.76.76,0,0,1-.75-.75v-9a.75.75,0,0,1,.75-.75.74.74,0,0,1,.75.75v9A.75.75,0,0,1,220-416.73Zm0-18a.76.76,0,0,1-.75-.75v-9a.75.75,0,0,1,.75-.75.74.74,0,0,1,.75.75v9A.75.75,0,0,1,220-434.73Zm0-18a.76.76,0,0,1-.75-.75v-9a.75.75,0,0,1,.75-.75.74.74,0,0,1,.75.75v9A.75.75,0,0,1,220-452.73Zm0-18a.76.76,0,0,1-.75-.75v-9a.75.75,0,0,1,.75-.75.74.74,0,0,1,.75.75v9A.75.75,0,0,1,220-470.73Zm0-18a.76.76,0,0,1-.75-.75v-9a.75.75,0,0,1,.75-.75.74.74,0,0,1,.75.75v9A.75.75,0,0,1,220-488.73Zm0-18a.76.76,0,0,1-.75-.75v-9a.76.76,0,0,1,.75-.75.75.75,0,0,1,.75.75v9A.75.75,0,0,1,220-506.76Zm0-18a.76.76,0,0,1-.75-.75v-9a.75.75,0,0,1,.75-.75.74.74,0,0,1,.75.75v9A.75.75,0,0,1,220-524.79Zm0-18a.76.76,0,0,1-.75-.75v-9a.76.76,0,0,1,.75-.75.75.75,0,0,1,.75.75v9A.75.75,0,0,1,220-542.81ZM219.25-3.48v-9a.75.75,0,0,1,.75-.75.74.74,0,0,1,.75.75v9a.75.75,0,0,1-.75.75A.76.76,0,0,1,219.25-3.48Zm3.89,18.31a.7.7,0,0,1-.31.07.77.77,0,0,1-.69-.44,32.82,32.82,0,0,1-2.54-8.84.75.75,0,0,1,.64-.85.77.77,0,0,1,.85.64,31.09,31.09,0,0,0,2.42,8.43A.75.75,0,0,1,223.14,14.83ZM236,26.77a.75.75,0,0,1-.69.46.72.72,0,0,1-.29-.06,24.28,24.28,0,0,1-7.66-5.12.75.75,0,0,1,0-1.06.75.75,0,0,1,1.06,0,23.1,23.1,0,0,0,7.2,4.8A.74.74,0,0,1,236,26.77ZM253,30h-.12a19.59,19.59,0,0,0-3.14-.26c-.66,0-.53,0-.55,0a43.72,43.72,0,0,1-5.26-.3.74.74,0,0,1-.65-.83.77.77,0,0,1,.83-.66,43.21,43.21,0,0,0,5.06.29h.57a22.76,22.76,0,0,1,3.37.27.76.76,0,0,1,.63.86A.75.75,0,0,1,253,30Zm-32.22,535.4a.75.75,0,0,1-1.5,0v-2.95a.75.75,0,0,1,1.5,0Zm0-11.95a.75.75,0,0,1-1.5,0v-9a.75.75,0,0,1,1.5,0Zm0-18a.75.75,0,0,1-1.5,0v-9a.75.75,0,0,1,1.5,0Zm0-18a.75.75,0,0,1-1.5,0v-9a.75.75,0,0,1,1.5,0Zm-1.67-27.68a.75.75,0,0,1,.87.6,53.33,53.33,0,0,1,.8,9.07.74.74,0,0,1-.74.76h0a.76.76,0,0,1-.75-.75,51.29,51.29,0,0,0-.78-8.81A.75.75,0,0,1,219.08,489.78Zm-8.31-15.59a.75.75,0,0,1,1.06,0,25.08,25.08,0,0,1,5.38,7.48.74.74,0,0,1-.36,1,.72.72,0,0,1-.32.08.76.76,0,0,1-.68-.43,23.33,23.33,0,0,0-5-7A.75.75,0,0,1,210.77,474.19ZM195,467.41a29.37,29.37,0,0,1,9,1.87.75.75,0,0,1-.27,1.45.65.65,0,0,1-.27-.05,27.92,27.92,0,0,0-8.55-1.77.75.75,0,0,1,.08-1.5Zm-18.42-1.68a.75.75,0,0,1,1-.39,27.57,27.57,0,0,0,8.47,2,.77.77,0,0,1,.68.82.76.76,0,0,1-.75.68h-.07a29.26,29.26,0,0,1-8.93-2.15A.75.75,0,0,1,176.57,465.73Zm-10.11-67.44a.75.75,0,0,1,1.5,0v9a.75.75,0,0,1-1.5,0Zm0,18a.75.75,0,0,1,1.5,0v9a.75.75,0,0,1-1.5,0Zm0,18a.75.75,0,0,1,1.5,0v9a.75.75,0,0,1-1.5,0Zm4.22,26.89a.73.73,0,0,1-1-.16,18.16,18.16,0,0,1-3.33-8.66.74.74,0,0,1,.64-.84.75.75,0,0,1,.84.65,17.07,17.07,0,0,0,3.05,8A.73.73,0,0,1,170.68,461.18Zm.73-80a28.17,28.17,0,0,0-2.76,8.26.76.76,0,0,1-.74.62h-.14a.76.76,0,0,1-.6-.87,30.16,30.16,0,0,1,2.92-8.71.75.75,0,1,1,1.32.71Zm13.35-10.27a21.48,21.48,0,0,0-7.82,3.68.74.74,0,0,1-.45.15.76.76,0,0,1-.6-.29.75.75,0,0,1,.14-1.05,22.82,22.82,0,0,1,8.36-3.94.75.75,0,1,1,.37,1.45Zm17.83-1.17a43.41,43.41,0,0,1-7.38.6h-.12a16.07,16.07,0,0,0-1.63-.17.75.75,0,0,1,.1-1.5c.91.06,1.52.15,1.71.18a41.76,41.76,0,0,0,7.06-.58.75.75,0,0,1,.26,1.48Zm16.66-135.4a.75.75,0,0,1,1.5,0v9a.75.75,0,0,1-1.5,0Zm0,18a.75.75,0,0,1,1.5,0v9a.75.75,0,0,1-1.5,0Zm0,18a.75.75,0,0,1,1.5,0v9a.75.75,0,0,1-1.5,0Zm0,18a.75.75,0,0,1,1.5,0v9a.75.75,0,0,1-1.5,0Zm0,18a.75.75,0,0,1,1.5,0v9a.75.75,0,0,1-1.5,0Zm0,18a.75.75,0,0,1,1.5,0v9a.75.75,0,0,1-1.5,0Zm-1.34,35.89a18.61,18.61,0,0,1-6.63,6.47.76.76,0,0,1-1-.27.77.77,0,0,1,.27-1,17,17,0,0,0,6.11-5.95.75.75,0,0,1,1-.25A.75.75,0,0,1,217.91,360.26Zm2.85-8.82a.76.76,0,0,1-.75.68h-.08a.75.75,0,0,1-.67-.82,23.13,23.13,0,0,0,.13-2.35,15.85,15.85,0,0,0-.13-2.17s0-.08,0-.11v-4.29a.75.75,0,0,1,1.5,0v4.24a17.51,17.51,0,0,1,.14,2.33C220.89,349.77,220.84,350.61,220.76,351.44ZM223.48,217a35.49,35.49,0,0,0-2.22,8.49.76.76,0,0,1-.74.65h-.11a.75.75,0,0,1-.64-.85,37.3,37.3,0,0,1,2.32-8.85.75.75,0,0,1,1-.41A.75.75,0,0,1,223.48,217Zm11.74-12.2a20.88,20.88,0,0,0-7.1,4.89.78.78,0,0,1-.55.23.76.76,0,0,1-.51-.2.75.75,0,0,1,0-1.06,22.14,22.14,0,0,1,7.61-5.24.74.74,0,0,1,1,.4A.75.75,0,0,1,235.22,204.81Zm17.51-2a36.16,36.16,0,0,1-3.84.19h-.12a25.88,25.88,0,0,0-5.05-.15.75.75,0,0,1-.1-1.5,26.48,26.48,0,0,1,5.33.16,34.81,34.81,0,0,0,3.62-.18.76.76,0,0,1,.83.67A.75.75,0,0,1,252.73,202.85Zm15-155.06a.76.76,0,0,1,.75.75v9a.75.75,0,0,1-1.5,0v-9A.75.75,0,0,1,267.78,47.79Zm0,100.79a.74.74,0,0,1-.75-.75v-9a.75.75,0,0,1,1.5,0v9A.75.75,0,0,1,267.78,148.58Zm.75,8.28v9a.75.75,0,0,1-1.5,0v-9a.75.75,0,0,1,1.5,0Zm-.75-26.33a.74.74,0,0,1-.75-.75v-9a.75.75,0,1,1,1.5,0v9A.75.75,0,0,1,267.78,130.53Zm0-18a.75.75,0,0,1-.75-.75v-9a.75.75,0,1,1,1.5,0v9A.76.76,0,0,1,267.78,112.48Zm0-18a.75.75,0,0,1-.75-.75v-9a.75.75,0,1,1,1.5,0v9A.76.76,0,0,1,267.78,94.44Zm0-18a.75.75,0,0,1-.75-.75v-9a.75.75,0,0,1,1.5,0v9A.76.76,0,0,1,267.78,76.39Zm-7.13-44.27A.76.76,0,0,1,261.7,32a15.82,15.82,0,0,1,5.51,7.48.74.74,0,0,1-.44,1,.78.78,0,0,1-.26,0,.73.73,0,0,1-.7-.49,14.4,14.4,0,0,0-5-6.78A.76.76,0,0,1,260.65,32.12Zm7,161a13.94,13.94,0,0,1-6.05,7.07.76.76,0,0,1-.38.11.75.75,0,0,1-.38-1.4,12.43,12.43,0,0,0,5.42-6.33.75.75,0,0,1,1-.42A.73.73,0,0,1,267.62,193.1Zm.36-8.39h-.11a.74.74,0,0,1-.74-.64c-.05-.31-.08-.49-.09-.51a.76.76,0,0,1,0-.15v-8.5a.75.75,0,1,1,1.5,0v8.42c0,.1.05.28.08.53A.75.75,0,0,1,268,184.71Z"/><path class="cls-4" d="M253.08,28.52a22.76,22.76,0,0,0-3.37-.27h-.57a43.21,43.21,0,0,1-5.06-.29.77.77,0,0,0-.83.66.74.74,0,0,0,.65.83,43.72,43.72,0,0,0,5.26.3s-.11,0,.55,0a19.59,19.59,0,0,1,3.14.26H253a.75.75,0,0,0,.74-.63A.76.76,0,0,0,253.08,28.52Z"/><path class="cls-4" d="M221.09,5.41a.77.77,0,0,0-.85-.64.75.75,0,0,0-.64.85,32.82,32.82,0,0,0,2.54,8.84.77.77,0,0,0,.69.44.7.7,0,0,0,.31-.07.75.75,0,0,0,.37-1A31.09,31.09,0,0,1,221.09,5.41Z"/><path class="cls-4" d="M235.62,25.79a23.1,23.1,0,0,1-7.2-4.8.75.75,0,0,0-1.06,0,.75.75,0,0,0,0,1.06A24.28,24.28,0,0,0,235,27.17a.72.72,0,0,0,.29.06.75.75,0,0,0,.69-.46A.74.74,0,0,0,235.62,25.79Z"/><path class="cls-4" d="M268.53,120.76a.75.75,0,1,0-1.5,0v9a.75.75,0,0,0,1.5,0Z"/><path class="cls-4" d="M267.78,156.11a.74.74,0,0,0-.75.75v9a.75.75,0,0,0,1.5,0v-9A.75.75,0,0,0,267.78,156.11Z"/><path class="cls-4" d="M267,48.54v9a.75.75,0,0,0,1.5,0v-9a.75.75,0,0,0-1.5,0Z"/><path class="cls-4" d="M268.53,138.81a.75.75,0,0,0-1.5,0v9a.75.75,0,1,0,1.5,0Z"/><path class="cls-4" d="M268.53,102.71a.75.75,0,1,0-1.5,0v9a.75.75,0,1,0,1.5,0Z"/><path class="cls-4" d="M268.53,66.61a.75.75,0,0,0-1.5,0v9a.75.75,0,0,0,1.5,0Z"/><path class="cls-4" d="M268.53,84.66a.75.75,0,1,0-1.5,0v9a.75.75,0,0,0,1.5,0Z"/><path class="cls-4" d="M267.2,192.13a.75.75,0,0,0-1,.42,12.43,12.43,0,0,1-5.42,6.33.75.75,0,0,0,.38,1.4.76.76,0,0,0,.38-.11,13.94,13.94,0,0,0,6.05-7.07A.73.73,0,0,0,267.2,192.13Z"/><path class="cls-4" d="M252.57,201.36a34.81,34.81,0,0,1-3.62.18,26.48,26.48,0,0,0-5.33-.16.75.75,0,0,0,.1,1.5,25.88,25.88,0,0,1,5.05.15h.12a36.16,36.16,0,0,0,3.84-.19.75.75,0,0,0,.67-.82A.76.76,0,0,0,252.57,201.36Z"/><path class="cls-4" d="M265.81,40a.73.73,0,0,0,.7.49.78.78,0,0,0,.26,0,.74.74,0,0,0,.44-1A15.82,15.82,0,0,0,261.7,32a.75.75,0,1,0-.89,1.21A14.4,14.4,0,0,1,265.81,40Z"/><path class="cls-4" d="M234.64,203.43a22.14,22.14,0,0,0-7.61,5.24.75.75,0,0,0,0,1.06.76.76,0,0,0,.51.2.78.78,0,0,0,.55-.23,20.88,20.88,0,0,1,7.1-4.89.75.75,0,0,0,.4-1A.74.74,0,0,0,234.64,203.43Z"/><path class="cls-4" d="M220,244.12a.75.75,0,0,0,.75-.75v-9a.75.75,0,0,0-1.5,0v9A.76.76,0,0,0,220,244.12Z"/><path class="cls-4" d="M223.07,216a.75.75,0,0,0-1,.41,37.3,37.3,0,0,0-2.32,8.85.75.75,0,0,0,.64.85h.11a.76.76,0,0,0,.74-.65,35.49,35.49,0,0,1,2.22-8.49A.75.75,0,0,0,223.07,216Z"/><path class="cls-4" d="M268.53,174.91a.75.75,0,1,0-1.5,0v8.5a.76.76,0,0,0,0,.15s0,.2.09.51a.74.74,0,0,0,.74.64H268a.75.75,0,0,0,.63-.85c0-.25-.07-.43-.08-.53Z"/></svg>