<svg id="Layer_1" data-name="Layer 1" xmlns="http://www.w3.org/2000/svg" width="439.94" height="250" viewBox="0 0 439.94 250"><defs><style>.cls-1{fill:#f4cc36;}.cls-2{fill:#ffda52;}.cls-3{fill:#282460;}.cls-4{fill:#fff;}</style></defs><title>Artboard 18</title><path class="cls-1" d="M440-1177.06V-954H413.23a26.26,26.26,0,0,0-26.15,23.91c-.07.78-.11,1.56-.11,2.36v53.53a26.26,26.26,0,0,0,26.26,26.26h-4.9A31.67,31.67,0,0,1,440-816.27V-716H377.46a62.33,62.33,0,0,0-44.22,18.32,62.35,62.35,0,0,0-18.31,44.22,62.28,62.28,0,0,0,11.89,36.7q1.67,2.29,3.52,4.42a62.37,62.37,0,0,0,47.12,21.42s52.37,4.83,61.67,63.83c.13.82.24,1.64.34,2.48s.18,1.66.25,2.5q.28,3.23.28,6.52v359l-.63.4-3.89,2.49L431.16-151l0,0-3.68,2.35L368.6-110.95a37.29,37.29,0,0,0-22.52,34.24V60.69A75.32,75.32,0,0,0,421.4,136h5.17a22,22,0,0,1,9.9,8.35,21.14,21.14,0,0,1,2.34,4.8A21.93,21.93,0,0,1,440,156.3V459.6A40.4,40.4,0,0,1,399.6,500H71.69a35.52,35.52,0,0,0-5-6.32L0,427V-42.22A22,22,0,0,1,9.82-60.57a35.65,35.65,0,0,0,11.36-3.68l.87,0h-.82A36.08,36.08,0,0,0,34.87-76.78a36.31,36.31,0,0,0,2.5-4.64A35.73,35.73,0,0,0,40.5-96.09v-88.38a36,36,0,0,0-1.81-11.29,35.54,35.54,0,0,0-1.89-4.6,35.88,35.88,0,0,0-32.2-20H0V-571l29.19-29.18a35,35,0,0,0,0-49.5L0-678.86V-1209.6A40.4,40.4,0,0,1,40.4-1250H367.06Z"/><path class="cls-2" d="M438.81,149.15a2.47,2.47,0,0,1-.94.19H124.43a2.52,2.52,0,0,1-1.76-.73L0,25.93v-6a2.46,2.46,0,0,1,1.76.74l123.71,123.7h311A21.14,21.14,0,0,1,438.81,149.15Z"/><path class="cls-3" d="M275.28-67.22V-202.36c0-10.19-4.09-16.17-7.52-19.4-7.2-6.77-16.73-6.81-18.77-6.73-7.16,0-12.58-1.92-16.12-5.62-5.75-6-5.38-15.39-5.38-15.44s0-.3,0-.45V-818.84c0-8.26-2.67-15.29-7.73-20.32-8.19-8.15-19.56-8.33-20.77-8.31H154.38c-8.5,0-9.9-7.81-10.13-10.4v-57c0-6,1.42-10.25,4.22-12.76,4.14-3.71,10.57-3,10.57-3a7.73,7.73,0,0,0,1,.06h38.5c9.12,0,16.37-2.8,21.56-8.32,7.55-8,7.53-18.68,7.44-20.86v-87.82a7.5,7.5,0,0,0-7.5-7.5,7.5,7.5,0,0,0-7.5,7.5v88c0,.15,0,.24,0,.4s.22,6.24-3.45,10.07c-2.24,2.34-5.8,3.53-10.57,3.53H160.4c-2.78-.26-13.41-.68-21.76,6.66-6.23,5.48-9.39,13.58-9.39,24.09v57.25c0,.14,0,.28,0,.42.56,9.93,7.71,24.7,25.11,24.7h44.67c.06,0,6.31.14,10.15,4,2.22,2.21,3.3,5.38,3.3,9.68v568.69c-.08,2.26-.15,16.12,9.38,26.25,6.51,6.91,15.68,10.41,27.27,10.41h.38c1.39,0,5.52.33,8,2.72,1.82,1.75,2.74,4.58,2.74,8.42V-66.59a7.35,7.35,0,0,0,.16,1.55s.67,4.15-1.4,6.71-6.28,3.07-9.69,3.12c-3.19-.37-15.27-1.11-24.92,7.05-7.91,6.7-11.93,17.22-11.93,31.26V96.66a6.71,6.71,0,0,0,.09,1.1c0,.06.66,5.66-2.73,9.6-2.66,3.08-7.41,4.68-14.13,4.75-3.31-.42-15.26-1.29-24.85,6.8-7.41,6.25-11.17,15.91-11.17,28.71v47.11c-.51,3.18-1.41,13,5.1,21.09,5.34,6.63,13.85,10,25.3,10a6.46,6.46,0,0,0,1.08-.08c.09,0,8.62-1.11,14.56,4.07,4.48,3.9,6.75,10.7,6.75,20.21v65.41a7.5,7.5,0,1,0,15,0V250c0-14.15-4.06-24.81-12.07-31.68-10-8.56-22.6-7.85-25.75-7.52-4.5-.05-10.28-.86-13.13-4.32-3.08-3.74-2-9.47-2-9.47a7.19,7.19,0,0,0,.17-1.6V147.62c0-8.12,1.94-13.9,5.77-17.18,5.38-4.62,13.45-3.43,13.47-3.43a7.66,7.66,0,0,0,1.26.11c11.56,0,20.31-3.36,26-10,7-8.15,6.58-18.12,6.28-20.94V-16.9c0-9.36,2.2-16,6.53-19.73,5.6-4.82,13.6-3.68,13.62-3.68a7.32,7.32,0,0,0,1.24.1c9.8,0,17.13-2.92,21.8-8.67C276.35-55.87,275.71-64.33,275.28-67.22Zm-56-980.37a.75.75,0,0,1,.75-.75.74.74,0,0,1,.75.75v9a.75.75,0,0,1-.75.75.76.76,0,0,1-.75-.75Zm0,18a.75.75,0,0,1,.75-.75.74.74,0,0,1,.75.75v9a.75.75,0,0,1-.75.75.76.76,0,0,1-.75-.75Zm0,18a.75.75,0,0,1,.75-.75.74.74,0,0,1,.75.75v9a.75.75,0,0,1-.75.75.76.76,0,0,1-.75-.75Zm0,18a.75.75,0,0,1,.75-.75.74.74,0,0,1,.75.75v9a.75.75,0,0,1-.75.75.76.76,0,0,1-.75-.75Zm0,18a.75.75,0,0,1,.75-.75.74.74,0,0,1,.75.75v9a.75.75,0,0,1-.75.75.76.76,0,0,1-.75-.75Zm-2.09,26.39a23.71,23.71,0,0,0,2.07-8.43.76.76,0,0,1,.79-.71.74.74,0,0,1,.7.8,25.19,25.19,0,0,1-2.2,9,.75.75,0,0,1-.68.44.88.88,0,0,1-.32-.07A.75.75,0,0,1,217.16-949.2Zm-13.29,9.9a19.26,19.26,0,0,0,7.93-3.27.76.76,0,0,1,1,.16.75.75,0,0,1-.17,1,20.63,20.63,0,0,1-8.54,3.53l-.13,0a.76.76,0,0,1-.74-.62A.74.74,0,0,1,203.87-939.3Zm-17.83.46h9a.74.74,0,0,1,.75.75.75.75,0,0,1-.75.75h-9a.76.76,0,0,1-.75-.75A.75.75,0,0,1,186-938.84Zm-18,0h9a.74.74,0,0,1,.75.75.75.75,0,0,1-.75.75h-9a.76.76,0,0,1-.75-.75A.75.75,0,0,1,168-938.84Zm-18.12,1.14a26.07,26.07,0,0,1,9.16-1.22.76.76,0,0,1,.71.79.74.74,0,0,1-.78.71,24.68,24.68,0,0,0-8.62,1.14.59.59,0,0,1-.23,0,.74.74,0,0,1-.71-.51A.75.75,0,0,1,149.92-937.7ZM136-914.84c0-.32,0-.63,0-.93a.76.76,0,0,1,.77-.74.75.75,0,0,1,.73.77c0,.29,0,.59,0,.9v8.09a.75.75,0,0,1-.75.75.76.76,0,0,1-.75-.75Zm0,17.09a.76.76,0,0,1,.75-.75.75.75,0,0,1,.75.75v9a.74.74,0,0,1-.75.75.75.75,0,0,1-.75-.75Zm0,18a.76.76,0,0,1,.75-.75.75.75,0,0,1,.75.75v9a.75.75,0,0,1-.75.75.76.76,0,0,1-.75-.75Zm1.92,27.67a.54.54,0,0,1-.22,0,.74.74,0,0,1-.71-.54,22.72,22.72,0,0,1-1-5v-4.16a.76.76,0,0,1,.75-.75.75.75,0,0,1,.75.75v4.12a23.33,23.33,0,0,0,.92,4.6A.74.74,0,0,1,137.92-852.06Zm.19-71.8a.66.66,0,0,1-.23,0,.74.74,0,0,1-.48-.94,20.07,20.07,0,0,1,4.63-8,.75.75,0,0,1,1.06,0,.75.75,0,0,1,0,1.06,18.6,18.6,0,0,0-4.28,7.41A.77.77,0,0,1,138.11-923.86Zm12.29,83.54a.75.75,0,0,1-.73.57l-.17,0a15.84,15.84,0,0,1-8-4.67.75.75,0,0,1,0-1.06.74.74,0,0,1,1.06,0,14.41,14.41,0,0,0,7.28,4.23A.75.75,0,0,1,150.4-840.32Zm17.24,1.1h-9a.75.75,0,0,1-.75-.75.76.76,0,0,1,.75-.75h9a.75.75,0,0,1,.75.75A.74.74,0,0,1,167.64-839.22Zm18,0h-9a.75.75,0,0,1-.75-.75.76.76,0,0,1,.75-.75h9a.75.75,0,0,1,.75.75A.74.74,0,0,1,185.66-839.22Zm18.75,0a.76.76,0,0,1-.73.59l-.16,0a23.79,23.79,0,0,0-4.52-.56h-4.32a.75.75,0,0,1-.75-.75.76.76,0,0,1,.75-.75H199a24.7,24.7,0,0,1,4.84.6A.74.74,0,0,1,204.41-839.23Zm13.72,10.65a.8.8,0,0,1-.33.08.76.76,0,0,1-.68-.42,16.82,16.82,0,0,0-5.6-6.4.76.76,0,0,1-.2-1,.75.75,0,0,1,1-.19,18.32,18.32,0,0,1,6.11,7A.75.75,0,0,1,218.13-828.58Zm1.78,7.23a.76.76,0,0,1,.79.71c0,.58.05,1.18.05,1.8v7.25a.74.74,0,0,1-.75.75.75.75,0,0,1-.75-.75v-7.25c0-.59,0-1.16,0-1.71A.75.75,0,0,1,219.91-821.35ZM220-288.73a.76.76,0,0,1-.75-.75v-9a.75.75,0,0,1,.75-.75.74.74,0,0,1,.75.75v9A.75.75,0,0,1,220-288.73Zm.75,8.25v9a.75.75,0,0,1-.75.75.76.76,0,0,1-.75-.75v-9a.75.75,0,0,1,.75-.75A.74.74,0,0,1,220.75-280.48ZM220-306.73a.76.76,0,0,1-.75-.75v-9a.75.75,0,0,1,.75-.75.74.74,0,0,1,.75.75v9A.75.75,0,0,1,220-306.73Zm0-18a.76.76,0,0,1-.75-.75v-9a.75.75,0,0,1,.75-.75.74.74,0,0,1,.75.75v9A.75.75,0,0,1,220-324.73Zm0-18a.76.76,0,0,1-.75-.75v-9a.75.75,0,0,1,.75-.75.74.74,0,0,1,.75.75v9A.75.75,0,0,1,220-342.73Zm0-18a.76.76,0,0,1-.75-.75v-9a.75.75,0,0,1,.75-.75.74.74,0,0,1,.75.75v9A.75.75,0,0,1,220-360.73Zm0-18a.76.76,0,0,1-.75-.75v-9a.75.75,0,0,1,.75-.75.74.74,0,0,1,.75.75v9A.75.75,0,0,1,220-378.73Zm0-18a.76.76,0,0,1-.75-.75v-9a.75.75,0,0,1,.75-.75.74.74,0,0,1,.75.75v9A.75.75,0,0,1,220-396.73Zm0-18a.76.76,0,0,1-.75-.75v-9a.75.75,0,0,1,.75-.75.74.74,0,0,1,.75.75v9A.75.75,0,0,1,220-414.73Zm0-18a.76.76,0,0,1-.75-.75v-9a.75.75,0,0,1,.75-.75.74.74,0,0,1,.75.75v9A.75.75,0,0,1,220-432.73Zm0-18a.76.76,0,0,1-.75-.75v-9a.75.75,0,0,1,.75-.75.74.74,0,0,1,.75.75v9A.75.75,0,0,1,220-450.73Zm0-18a.76.76,0,0,1-.75-.75v-9a.75.75,0,0,1,.75-.75.74.74,0,0,1,.75.75v9A.75.75,0,0,1,220-468.73Zm0-18a.76.76,0,0,1-.75-.75v-9a.75.75,0,0,1,.75-.75.74.74,0,0,1,.75.75v9A.75.75,0,0,1,220-486.73Zm0-18a.76.76,0,0,1-.75-.75v-9a.75.75,0,0,1,.75-.75.74.74,0,0,1,.75.75v9A.75.75,0,0,1,220-504.73Zm0-18a.76.76,0,0,1-.75-.75v-9a.75.75,0,0,1,.75-.75.74.74,0,0,1,.75.75v9A.75.75,0,0,1,220-522.73Zm0-18a.76.76,0,0,1-.75-.75v-9a.75.75,0,0,1,.75-.75.74.74,0,0,1,.75.75v9A.75.75,0,0,1,220-540.73Zm0-18a.76.76,0,0,1-.75-.75v-9a.75.75,0,0,1,.75-.75.74.74,0,0,1,.75.75v9A.75.75,0,0,1,220-558.73Zm0-18a.76.76,0,0,1-.75-.75v-9a.75.75,0,0,1,.75-.75.74.74,0,0,1,.75.75v9A.75.75,0,0,1,220-576.73Zm0-18a.76.76,0,0,1-.75-.75v-9a.75.75,0,0,1,.75-.75.74.74,0,0,1,.75.75v9A.75.75,0,0,1,220-594.73Zm0-18a.76.76,0,0,1-.75-.75v-9a.75.75,0,0,1,.75-.75.74.74,0,0,1,.75.75v9A.75.75,0,0,1,220-612.73Zm0-18a.76.76,0,0,1-.75-.75v-9a.75.75,0,0,1,.75-.75.74.74,0,0,1,.75.75v9A.75.75,0,0,1,220-630.73Zm0-18a.76.76,0,0,1-.75-.75v-9a.75.75,0,0,1,.75-.75.74.74,0,0,1,.75.75v9A.75.75,0,0,1,220-648.73Zm0-18a.76.76,0,0,1-.75-.75v-9a.75.75,0,0,1,.75-.75.74.74,0,0,1,.75.75v9A.75.75,0,0,1,220-666.73Zm0-18a.76.76,0,0,1-.75-.75v-9a.75.75,0,0,1,.75-.75.74.74,0,0,1,.75.75v9A.75.75,0,0,1,220-684.73Zm0-18a.76.76,0,0,1-.75-.75v-9a.75.75,0,0,1,.75-.75.74.74,0,0,1,.75.75v9A.75.75,0,0,1,220-702.73Zm0-18a.76.76,0,0,1-.75-.75v-9a.75.75,0,0,1,.75-.75.74.74,0,0,1,.75.75v9A.75.75,0,0,1,220-720.73Zm0-18a.76.76,0,0,1-.75-.75v-9a.75.75,0,0,1,.75-.75.74.74,0,0,1,.75.75v9A.75.75,0,0,1,220-738.73Zm0-18a.76.76,0,0,1-.75-.75v-9a.76.76,0,0,1,.75-.75.75.75,0,0,1,.75.75v9A.75.75,0,0,1,220-756.76Zm0-18a.76.76,0,0,1-.75-.75v-9a.75.75,0,0,1,.75-.75.74.74,0,0,1,.75.75v9A.75.75,0,0,1,220-774.79Zm0-18a.76.76,0,0,1-.75-.75v-9a.76.76,0,0,1,.75-.75.75.75,0,0,1,.75.75v9A.75.75,0,0,1,220-792.81Zm-.75,539.33v-9a.75.75,0,0,1,.75-.75.74.74,0,0,1,.75.75v9a.75.75,0,0,1-.75.75A.76.76,0,0,1,219.25-253.48Zm3.89,18.31a.7.7,0,0,1-.31.07.77.77,0,0,1-.69-.44,32.82,32.82,0,0,1-2.54-8.84.75.75,0,0,1,.64-.85.77.77,0,0,1,.85.64,31.09,31.09,0,0,0,2.42,8.43A.75.75,0,0,1,223.14-235.17ZM236-223.23a.75.75,0,0,1-.69.46.72.72,0,0,1-.29-.06,24.28,24.28,0,0,1-7.66-5.12.75.75,0,0,1,0-1.06.75.75,0,0,1,1.06,0,23.1,23.1,0,0,0,7.2,4.8A.74.74,0,0,1,236-223.23ZM253-220h-.12a19.59,19.59,0,0,0-3.14-.26c-.66,0-.53,0-.55,0a43.72,43.72,0,0,1-5.26-.3.74.74,0,0,1-.65-.83.77.77,0,0,1,.83-.66,43.21,43.21,0,0,0,5.06.29h.57a22.76,22.76,0,0,1,3.37.27.76.76,0,0,1,.63.86A.75.75,0,0,1,253-220Zm-32.22,535.4a.75.75,0,1,1-1.5,0v-3a.75.75,0,0,1,1.5,0Zm0-12a.75.75,0,1,1-1.5,0v-9a.75.75,0,0,1,1.5,0Zm0-18a.75.75,0,0,1-1.5,0v-9a.75.75,0,0,1,1.5,0Zm0-18a.75.75,0,0,1-1.5,0v-9a.75.75,0,0,1,1.5,0Zm-1.67-27.68a.75.75,0,0,1,.87.6,53.33,53.33,0,0,1,.8,9.07.74.74,0,0,1-.74.76h0a.76.76,0,0,1-.75-.75,51.29,51.29,0,0,0-.78-8.81A.75.75,0,0,1,219.08,239.78Zm-8.31-15.59a.75.75,0,0,1,1.06,0,25.08,25.08,0,0,1,5.38,7.48.74.74,0,0,1-.36,1,.72.72,0,0,1-.32.08.76.76,0,0,1-.68-.43,23.33,23.33,0,0,0-5-7A.75.75,0,0,1,210.77,224.19ZM195,217.41a29.37,29.37,0,0,1,9,1.87.75.75,0,0,1-.27,1.45.65.65,0,0,1-.27,0,27.92,27.92,0,0,0-8.55-1.77.75.75,0,0,1,.08-1.5Zm-18.42-1.68a.75.75,0,0,1,1-.39,27.57,27.57,0,0,0,8.47,2,.77.77,0,0,1,.68.82.76.76,0,0,1-.75.68h-.07a29.26,29.26,0,0,1-8.93-2.15A.75.75,0,0,1,176.57,215.73Zm-10.11-67.44a.75.75,0,0,1,1.5,0v9a.75.75,0,0,1-1.5,0Zm0,18a.75.75,0,0,1,1.5,0v9a.75.75,0,0,1-1.5,0Zm0,18a.75.75,0,0,1,1.5,0v9a.75.75,0,0,1-1.5,0Zm4.22,26.89a.73.73,0,0,1-1-.16,18.16,18.16,0,0,1-3.33-8.66.74.74,0,0,1,.64-.84.75.75,0,0,1,.84.65,17.07,17.07,0,0,0,3.05,8A.73.73,0,0,1,170.68,211.18Zm.73-80a28.17,28.17,0,0,0-2.76,8.26.76.76,0,0,1-.74.62h-.14a.76.76,0,0,1-.6-.87,30.16,30.16,0,0,1,2.92-8.71.75.75,0,1,1,1.32.71Zm13.35-10.27a21.48,21.48,0,0,0-7.82,3.68.74.74,0,0,1-.45.15.76.76,0,0,1-.6-.29.75.75,0,0,1,.14-1,22.82,22.82,0,0,1,8.36-3.94.75.75,0,0,1,.37,1.45Zm17.83-1.17a43.41,43.41,0,0,1-7.38.6h-.12a16.07,16.07,0,0,0-1.63-.17.75.75,0,0,1,.1-1.5c.91.06,1.52.15,1.71.18a41.76,41.76,0,0,0,7.06-.58.75.75,0,0,1,.26,1.48Zm16.66-135.4a.76.76,0,0,1,.75-.75.75.75,0,0,1,.75.75v9a.75.75,0,0,1-.75.75.76.76,0,0,1-.75-.75Zm0,18a.75.75,0,0,1,1.5,0v9a.75.75,0,1,1-1.5,0Zm0,18a.75.75,0,0,1,1.5,0v9a.75.75,0,1,1-1.5,0Zm0,18a.75.75,0,0,1,1.5,0v9a.75.75,0,1,1-1.5,0Zm0,18a.75.75,0,0,1,1.5,0v9a.75.75,0,0,1-1.5,0Zm0,18a.75.75,0,0,1,1.5,0v9a.75.75,0,0,1-1.5,0Zm-1.34,35.89a18.61,18.61,0,0,1-6.63,6.47.76.76,0,0,1-1-.27.77.77,0,0,1,.27-1,17,17,0,0,0,6.11-6,.75.75,0,0,1,1-.25A.75.75,0,0,1,217.91,110.26Zm2.85-8.82a.76.76,0,0,1-.75.68h-.08a.75.75,0,0,1-.67-.82,23.13,23.13,0,0,0,.13-2.35,15.85,15.85,0,0,0-.13-2.17s0-.08,0-.11V92.37a.75.75,0,0,1,1.5,0v4.24a17.51,17.51,0,0,1,.14,2.33C220.89,99.77,220.84,100.61,220.76,101.44ZM223.48-33a35.49,35.49,0,0,0-2.22,8.49.76.76,0,0,1-.74.65h-.11a.75.75,0,0,1-.64-.85,37.3,37.3,0,0,1,2.32-8.85.75.75,0,0,1,1-.41A.75.75,0,0,1,223.48-33Zm11.74-12.2a20.88,20.88,0,0,0-7.1,4.89.78.78,0,0,1-.55.23.76.76,0,0,1-.51-.2.75.75,0,0,1,0-1.06,22.14,22.14,0,0,1,7.61-5.24.74.74,0,0,1,1,.4A.75.75,0,0,1,235.22-45.19Zm17.51-2a36.16,36.16,0,0,1-3.84.19h-.12a25.88,25.88,0,0,0-5.05-.15.76.76,0,0,1-.8-.7.75.75,0,0,1,.7-.8,26.48,26.48,0,0,1,5.33.16,34.81,34.81,0,0,0,3.62-.18.76.76,0,0,1,.83.67A.75.75,0,0,1,252.73-47.15Zm15-155.06a.76.76,0,0,1,.75.75v9a.75.75,0,0,1-.75.75.74.74,0,0,1-.75-.75v-9A.75.75,0,0,1,267.78-202.21Zm0,100.79a.74.74,0,0,1-.75-.75v-9a.74.74,0,0,1,.75-.75.75.75,0,0,1,.75.75v9A.75.75,0,0,1,267.78-101.42Zm.75,8.28v9a.76.76,0,0,1-.75.75.75.75,0,0,1-.75-.75v-9a.74.74,0,0,1,.75-.75A.75.75,0,0,1,268.53-93.14Zm-.75-26.33a.74.74,0,0,1-.75-.75v-9a.75.75,0,0,1,.75-.75.76.76,0,0,1,.75.75v9A.75.75,0,0,1,267.78-119.47Zm0-18.05a.75.75,0,0,1-.75-.75v-9a.74.74,0,0,1,.75-.75.75.75,0,0,1,.75.75v9A.76.76,0,0,1,267.78-137.52Zm0-18a.75.75,0,0,1-.75-.75v-9a.75.75,0,0,1,.75-.75.76.76,0,0,1,.75.75v9A.76.76,0,0,1,267.78-155.56Zm0-18.05a.75.75,0,0,1-.75-.75v-9a.75.75,0,0,1,.75-.75.76.76,0,0,1,.75.75v9A.76.76,0,0,1,267.78-173.61Zm-7.13-44.27a.76.76,0,0,1,1.05-.16,15.82,15.82,0,0,1,5.51,7.48.74.74,0,0,1-.44,1,.78.78,0,0,1-.26,0,.73.73,0,0,1-.7-.49,14.4,14.4,0,0,0-5-6.78A.76.76,0,0,1,260.65-217.88Zm7,161a13.94,13.94,0,0,1-6.05,7.07.76.76,0,0,1-.38.11.74.74,0,0,1-.64-.37.75.75,0,0,1,.26-1,12.43,12.43,0,0,0,5.42-6.33.75.75,0,0,1,1-.42A.73.73,0,0,1,267.62-56.9Zm.36-8.39h-.11a.74.74,0,0,1-.74-.64c-.05-.31-.08-.49-.09-.51a.76.76,0,0,1,0-.15v-8.5a.75.75,0,0,1,.75-.75.76.76,0,0,1,.75.75v8.42c0,.1.05.28.08.53A.75.75,0,0,1,268-65.29Z"/><path class="cls-4" d="M215.85,232.29a.76.76,0,0,0,.68.43.72.72,0,0,0,.32-.08.74.74,0,0,0,.36-1,25.08,25.08,0,0,0-5.38-7.48.75.75,0,1,0-1,1.09A23.33,23.33,0,0,1,215.85,232.29Z"/><path class="cls-4" d="M220,250.21h0a.74.74,0,0,0,.74-.76,53.33,53.33,0,0,0-.8-9.07.75.75,0,0,0-1.48.27,51.29,51.29,0,0,1,.78,8.81A.76.76,0,0,0,220,250.21Z"/><path class="cls-4" d="M177,216.72a29.26,29.26,0,0,0,8.93,2.15H186a.76.76,0,0,0,.75-.68.77.77,0,0,0-.68-.82,27.57,27.57,0,0,1-8.47-2,.75.75,0,1,0-.6,1.38Z"/><path class="cls-4" d="M194.91,218.91a27.92,27.92,0,0,1,8.55,1.77.65.65,0,0,0,.27,0,.75.75,0,0,0,.27-1.45,29.37,29.37,0,0,0-9-1.87.75.75,0,0,0-.08,1.5Z"/><path class="cls-4" d="M171.1,130.19a.75.75,0,0,0-1,.31,30.16,30.16,0,0,0-2.92,8.71.76.76,0,0,0,.6.87h.14a.76.76,0,0,0,.74-.62,28.17,28.17,0,0,1,2.76-8.26A.75.75,0,0,0,171.1,130.19Z"/><path class="cls-4" d="M184.39,119.49a22.82,22.82,0,0,0-8.36,3.94.75.75,0,0,0-.14,1,.76.76,0,0,0,.6.29.74.74,0,0,0,.45-.15,21.48,21.48,0,0,1,7.82-3.68.75.75,0,0,0-.37-1.45Z"/><path class="cls-4" d="M167.21,194a.74.74,0,0,0,.75-.75v-9a.75.75,0,0,0-1.5,0v9A.75.75,0,0,0,167.21,194Z"/><path class="cls-4" d="M167.21,176a.74.74,0,0,0,.75-.75v-9a.75.75,0,0,0-1.5,0v9A.75.75,0,0,0,167.21,176Z"/><path class="cls-4" d="M167.21,158a.74.74,0,0,0,.75-.75v-9a.75.75,0,0,0-1.5,0v9A.75.75,0,0,0,167.21,158Z"/><path class="cls-4" d="M167.79,202.17a.75.75,0,0,0-.84-.65.74.74,0,0,0-.64.84,18.16,18.16,0,0,0,3.33,8.66.74.74,0,1,0,1.2-.88A17.07,17.07,0,0,1,167.79,202.17Z"/><path class="cls-4" d="M220.75,92.37a.75.75,0,0,0-1.5,0v4.29s0,.07,0,.11a15.85,15.85,0,0,1,.13,2.17,23.13,23.13,0,0,1-.13,2.35.75.75,0,0,0,.67.82H220a.76.76,0,0,0,.75-.68c.08-.83.13-1.67.13-2.5a17.51,17.51,0,0,0-.14-2.33Z"/><path class="cls-4" d="M220,66.12a.75.75,0,0,0,.75-.75v-9a.75.75,0,0,0-1.5,0v9A.76.76,0,0,0,220,66.12Z"/><path class="cls-4" d="M220,30.12a.75.75,0,0,0,.75-.75v-9a.75.75,0,0,0-1.5,0v9A.76.76,0,0,0,220,30.12Z"/><path class="cls-4" d="M220,12.12a.75.75,0,0,0,.75-.75v-9a.75.75,0,0,0-1.5,0v9A.76.76,0,0,0,220,12.12Z"/><path class="cls-4" d="M220,48.12a.75.75,0,0,0,.75-.75v-9a.75.75,0,0,0-1.5,0v9A.76.76,0,0,0,220,48.12Z"/><path class="cls-4" d="M202.33,118.29a41.76,41.76,0,0,1-7.06.58c-.19,0-.8-.12-1.71-.18a.75.75,0,0,0-.1,1.5,16.07,16.07,0,0,1,1.63.17h.12a43.41,43.41,0,0,0,7.38-.6.75.75,0,0,0-.26-1.48Z"/><path class="cls-4" d="M220,84.12a.75.75,0,0,0,.75-.75v-9a.75.75,0,0,0-1.5,0v9A.76.76,0,0,0,220,84.12Z"/><path class="cls-4" d="M217.66,109.23a.75.75,0,0,0-1,.25,17,17,0,0,1-6.11,6,.77.77,0,0,0-.27,1,.76.76,0,0,0,1,.27,18.61,18.61,0,0,0,6.63-6.47A.75.75,0,0,0,217.66,109.23Z"/></svg>