<?xml version="1.0" encoding="UTF-8"?>
<svg width="37px" height="19px" viewBox="0 0 37 19" version="1.1" xmlns="http://www.w3.org/2000/svg" xmlns:xlink="http://www.w3.org/1999/xlink">
    <!-- Generator: Sketch 54.1 (76490) - https://sketchapp.com -->
    <title>Group 3</title>
    <desc>Created with Sketch.</desc>
    <defs>
        <polygon id="path-1" points="0 0 37 0 37 19 0 19"></polygon>
    </defs>
    <g id="Symbols" stroke="none" stroke-width="1" fill="none" fill-rule="evenodd">
        <g id="MERU-cab-fare-chart" transform="translate(-22.000000, -43.000000)">
            <g id="Group-3" transform="translate(22.000000, 43.000000)">
                <mask id="mask-2" fill="white">
                    <use xlink:href="#path-1"></use>
                </mask>
                <g id="Clip-2"></g>
                <path d="M2.96010924,15.5502387 C2.96010924,14.3951074 3.87735598,13.4579891 5.00891658,13.4579891 C6.14047717,13.4579891 7.05772391,14.3951074 7.05772391,15.5502387 C7.05772391,16.7057926 6.14047717,17.6424883 5.00891658,17.6424883 C3.87735598,17.6424883 2.96010924,16.7057926 2.96010924,15.5502387 L2.96010924,15.5502387 Z M6.75321619,5.55247989 C5.78094292,5.57994277 3.90342118,5.62134836 3.80329772,5.53515714 C3.43259268,5.21532012 4.68041233,2.01906243 4.91624031,1.8893531 C5.12062457,1.776544 5.79418239,1.67387505 6.75321619,1.58683882 L6.75321619,5.55247989 Z M8.08667864,1.48712741 C10.1396233,1.3586856 12.8466803,1.28643707 15.2227507,1.30333731 L15.2227507,6.61888496 L8.08667864,6.40847699 L8.08667864,1.48712741 Z M16.5557994,1.3236176 C18.4858653,1.36967075 20.0183335,1.48754992 20.4949542,1.70007042 C22.1407853,2.43354079 26.615311,6.95519972 26.615311,6.95519972 L16.5557994,6.65817802 L16.5557994,1.3236176 Z M28.9181506,15.5502387 C28.9181506,14.3951074 29.8353973,13.4579891 30.9669579,13.4579891 C32.0985185,13.4579891 33.016179,14.3951074 33.016179,15.5502387 C33.016179,16.7057926 32.0985185,17.6424883 30.9669579,17.6424883 C29.8353973,17.6424883 28.9181506,16.7057926 28.9181506,15.5502387 L28.9181506,15.5502387 Z M0.00150237066,14.4998889 C0.0279813023,14.8919744 0.792560452,15.144633 1.6576768,15.3060303 C1.65229826,15.3867289 1.6452648,15.4678501 1.6452648,15.5502387 C1.6452648,17.4557407 3.1582875,19 5.02339724,19 C6.86451045,19 8.35808769,17.4954562 8.39780609,15.6258673 C13.2409682,15.6820606 21.2971831,15.7644493 27.614477,15.7690968 C27.7253575,17.5719298 29.1883185,19 30.9818523,19 C32.7894532,19 34.2611025,17.5482695 34.3508826,15.7251562 C35.8696976,15.6943133 36.8167332,15.6457251 36.9081682,15.5730541 C37.2209506,15.3246205 36.6698578,11.3674296 36.2279907,10.1751177 C35.2701981,7.58642364 29.3505019,7.00294289 29.3505019,7.00294289 C24.1113971,2.07863577 21.8710312,0.555079234 20.8656593,0.374246678 C17.7130115,-0.194446362 4.90051845,-0.146703187 3.47893081,0.736756803 C1.93942918,1.69415534 -0.0626262918,13.5526305 0.00150237066,14.4998889 L0.00150237066,14.4998889 Z" id="Fill-1" fill="#191542" mask="url(#mask-2)"></path>
            </g>
        </g>
    </g>
</svg>