<svg id="Layer_1" data-name="Layer 1" xmlns="http://www.w3.org/2000/svg" width="50" height="50" viewBox="0 0 50 50"><title>Meru_Outstation_Map_Blocks-v2</title><path d="M2.8,26.94l3.07-1-1-3.41,1.22,3.33,2.11-.67-1-3.48,1.26,3.4L9,25l-1-3.4,1.22,3.32,1.91-.61-1-3.44,1.23,3.36.33-.11-1-3.42L12,24l.35-.11-1-3.33,1.2,3.25.34-.11L12,20.4l1.2,3.23.12,0c-3.82,4.16-5,9.22-2.69,11.55l2.73-2.75L11.15,30l2.42,2.26.21-.21-2.25-2.45L14,31.81l2-2-2.12-2.32,2.29,2.14.22-.22-2.13-2.32,2.3,2.15,2.52-2.54L17,24.42l2.25,2.1.22-.23L17.35,24l2.26,2.11.23-.23L17.7,23.54,20,25.71l.21-.21-2.16-2.36,2.34,2.18,1.26-1.27-2.13-2.33,2.3,2.15.33-.32-2-2.14h0l2.11,2L23.74,22l-1.19-1.3.12,0,1.23,1.14v0a.36.36,0,0,0,.36.36H24.1a.4.4,0,0,0-.39.39V24a.4.4,0,0,0,.39.39h-.2a.43.43,0,0,0-.43.43v1.6a.43.43,0,0,0,.43.44h-.18a.47.47,0,0,0-.47.47v1.74a.47.47,0,0,0,.47.48h0a.51.51,0,0,0-.51.51v1.88a.51.51,0,0,0,.51.51h0a.55.55,0,0,0-.55.54v2a.55.55,0,0,0,.55.55h.07a.62.62,0,0,0-.62.62v2.27a.62.62,0,0,0,.62.62H24a.71.71,0,0,0-.71.71V42.4a.71.71,0,0,0,.71.71h.1a.81.81,0,0,0-.81.81v3a.81.81,0,0,0,.81.81h3a.81.81,0,0,0,.81-.81v-3a.81.81,0,0,0-.81-.81h-.45a.71.71,0,0,0,.72-.71V39.78a.71.71,0,0,0-.72-.71h-.44a.62.62,0,0,0,.62-.62V36.18a.62.62,0,0,0-.62-.62h-.32a.55.55,0,0,0,.55-.55V33a.55.55,0,0,0-.55-.54h-.18a.51.51,0,0,0,.51-.51V30.06a.51.51,0,0,0-.51-.51h-.17a.47.47,0,0,0,.47-.48V27.33a.47.47,0,0,0-.47-.47h0a.44.44,0,0,0,.44-.44v-1.6a.44.44,0,0,0-.44-.43h.05a.4.4,0,0,0,.39-.39V22.55a.4.4,0,0,0-.39-.39h0a.36.36,0,0,0,.36-.36v-.19l1.88-1.76h0L25.91,22l1.39,1.4,2.37-2.21-2.19,2.39.33.32,2.3-2.15L28,24.05l1.26,1.27,2.34-2.18L29.42,25.5l.21.21L32,23.54l-2.14,2.35.23.23L32.3,24l-2.09,2.28.22.23,2.25-2.1L30.6,26.69l2.52,2.54,2.3-2.15L33.29,29.4l.22.22,2.29-2.14L33.68,29.8l2,2,2.43-2.26L35.87,32l.21.21L38.5,30l-2.24,2.44L39,35.14c2.45-2.43,1-7.85-3.2-12.1a18.36,18.36,0,0,0-1.41-1.27l1.07-3.28-.81,3.35L38.48,23l1.1-3.35-.83,3.43.33.09,1.09-3.33-.83,3.41,3.06.9,1.15-3.54-.87,3.62.31.09,1.15-3.52-.87,3.6,4.17,1.22c1.08-3.71-3.25-8.24-9.69-10.12a17.38,17.38,0,0,0-8.93-.42l.95-1L28,12.15,29.92,14l.18-.19-1.79-1.95,1.94,1.8,2.12-2.13L30.62,9.57l1.89,1.77.18-.19L30.94,9.23,32.84,11l.19-.19-1.8-2,1.95,1.82.18-.18-1.82-2,2,1.83,1.06-1.07-1.8-1.95,1.94,1.81L35,8.84l-1.84-2,2,1.85L36.3,7.51l-1.8-2,2,1.82,1.7-1.72C36.09,3.6,31.55,4.84,28,8.42a13.39,13.39,0,0,0-3.3,5.19A17.61,17.61,0,0,0,18.12,8c-6-3.09-12.22-2.81-14,.62L7,10.09,8.71,7,7.23,10.21l2,1L11,8.07,9.44,11.36l.46.24,1.72-3.09-1.48,3.21,1.78.92,1.74-3.12-1.49,3.25.3.16,1.74-3.1-1.49,3.23.32.17,1.69-3-1.45,3.14.32.16,1.68-3-1.45,3.13,3.56,1.84,1.72-3.07-1.47,3.2.09.05a19.77,19.77,0,0,0-5.48.94C5.86,18.62,1.63,23.25,2.8,26.94ZM16.09,19l.62,1.68a.57.57,0,0,0-.13.08Zm.59-.17.56,1.5-.11.07Zm11.09-.22-.19,0,.75-2.3ZM21,18.79l-.11,0-.39-1.37Zm-.61.15-.1,0-.39-1.36Zm-.75-6.23L18.3,15.66H18Zm3.17,1.4-.95,2.06-.18-.05Zm.54.3-.9,2-.16-.06Zm2.36-.19,1.48,1.39-.15.07Zm1.95,1.19-.17.07-1.46-1.6Zm3.06,1.52-.57,2.33L30,19.19Zm.74.31-.57,2.33-.17-.09Zm2.2.6L33,20.73l-.2-.13Zm.59.19-.75,3.07L33.31,21Zm-.19,3.49-.22-.16,1-3.06Z" style="fill:#09694b"/></svg>