<?xml version="1.0" encoding="UTF-8"?>
<svg width="82px" height="20px" viewBox="0 0 82 20" version="1.1" xmlns="http://www.w3.org/2000/svg" xmlns:xlink="http://www.w3.org/1999/xlink">
    <!-- Generator: Sketch 54.1 (76490) - https://sketchapp.com -->
    <title>Meru-logo</title>
    <desc>Created with Sketch.</desc>
    <defs>
        <polygon id="path-1" points="0 0.000433082707 20.5233699 0.000433082707 20.5233699 7.1909594 0 7.1909594"></polygon>
    </defs>
    <g id="Meru-logo" stroke="none" stroke-width="1" fill="none" fill-rule="evenodd">
        <g id="Group-25" transform="translate(1.000000, 1.000000)">
            <polygon id="Fill-1" fill="#FEFEFE" points="41.0069098 17.5941474 41.0069098 3.46523008 50.4659774 3.46523008 50.4659774 7.31249323 45.9819474 7.31249323 45.9819474 8.6524782 50.0546842 8.6524782 50.0546842 12.2875308 45.9819474 12.2875308 45.9819474 13.7467489 50.5853459 13.7467489 50.5853459 17.5941474"></polygon>
            <g id="Group-24" transform="translate(0.000000, 0.117474)">
                <path d="M57.6033564,6.9695188 L57.6033564,9.75545865 L58.3992812,9.75545865 C58.8105744,9.78198496 59.2086045,9.64935338 59.5270556,9.39721805 C59.7923188,9.13195489 59.9382135,8.76045113 59.9116872,8.37581955 C59.9382135,7.99105263 59.7923188,7.60628571 59.5270556,7.32762406 C59.2086045,7.0623609 58.8105744,6.94299248 58.3992812,6.9695188 L57.6033564,6.9695188 Z M52.6283188,17.4766466 L52.6283188,3.36099248 L59.0229203,3.36099248 C60.8801684,3.36099248 62.2864692,3.77228571 63.2682135,4.58147368 C64.2499579,5.39079699 64.7406947,6.57148872 64.7274316,8.11042105 C64.7673564,8.99932331 64.5019579,9.87482707 63.9845594,10.6045714 C63.5069504,11.2413383 62.7906045,11.6526316 61.9945444,11.7454737 L65.7622286,17.4899098 L60.0842436,17.4899098 L57.5900932,12.8333233 L57.5900932,17.4899098 L52.6283188,17.4766466 Z" id="Fill-2" fill="#FEFEFE"></path>
                <path d="M66.6246045,11.0157835 L66.6246045,3.36091128 L71.6924842,3.36091128 L71.6924842,11.0555729 C71.6924842,11.9577383 71.7985895,12.5679789 72.0108,12.8996932 C72.2496722,13.2577985 72.6740932,13.4568812 73.0986496,13.4038286 C73.5364692,13.4434827 73.9477624,13.2445353 74.1997624,12.8864301 C74.4651609,12.3158436 74.5845293,11.6790767 74.5314767,11.0423098 L74.5314767,3.34778346 L79.5859579,3.34778346 L79.5859579,11.0157835 C79.5992211,11.8516331 79.5329053,12.6740842 79.4002737,13.4966707 C79.2941684,14.080385 79.0818226,14.6243098 78.7635068,15.1284451 C78.1930556,16.0173474 77.3837323,16.7204301 76.4419128,17.1581143 C74.306003,18.1000692 71.8649053,18.1000692 69.7289955,17.1581143 C68.7737774,16.7204301 67.9645895,16.0173474 67.4072662,15.1284451 C67.1022135,14.6375729 66.8898677,14.0936481 66.7970256,13.523197 C66.664394,12.6873474 66.6113414,11.8516331 66.6246045,11.0157835" id="Fill-4" fill="#FEFEFE"></path>
                <path d="M7.98646466,3.83862857 C10.9847504,5.66935038 14.5800135,6.25306466 17.9894571,5.47040301 C18.3476977,5.39082406 18.7190662,5.2847188 19.0773068,5.1784782 C18.6925398,5.1784782 18.3342992,5.20500451 17.9496677,5.20500451 C16.0922842,5.19187669 14.2615624,4.78044812 12.5767353,4.02431278 L10.2152165,0.0178917293 L7.98646466,3.83862857 Z" id="Fill-9" fill="#F9D036"></path>
                <g id="Group-13" transform="translate(0.000000, 10.285714)">
                    <mask id="mask-2" fill="white">
                        <use xlink:href="#path-1"></use>
                    </mask>
                    <g id="Clip-12"></g>
                    <path d="M20.5233699,7.1909594 C14.314588,7.1909594 8.38446767,4.57730526 4.19222707,0.000433082707 L-1.35338346e-05,7.1909594 L20.5233699,7.1909594 Z" id="Fill-11" fill="#F9D036" mask="url(#mask-2)"></path>
                </g>
                <path d="M37.3984376,3.34768872 L32.1581368,3.34768872 L31.0968135,6.78379398 C30.8315504,7.63290677 30.6324677,8.38904211 30.4733098,9.0655985 C30.3272797,9.74229023 30.2079113,10.3790571 30.1283323,10.9760346 L30.048618,10.9760346 C29.9028586,9.74229023 29.6375955,8.53493684 29.2793549,7.34098195 C29.2129038,7.12863609 29.1598511,6.95621504 29.1333248,6.85010977 L28.1250541,3.36095188 L22.8847534,3.36095188 L21.2904677,12.6814331 C22.8346782,12.614982 24.3648135,12.3605459 25.8566481,11.9311173 C24.3557459,12.6155233 22.7892045,13.1128917 21.1678511,13.3983203 L20.470182,17.476606 L25.4717459,17.476606 L26.095385,11.8780647 C26.1219113,11.4535083 26.1617008,11.0290872 26.2013549,10.6045308 C26.2412797,10.1667113 26.2676707,9.74229023 26.3075955,9.30433534 C26.3606481,9.71562857 26.4402271,10.140185 26.5463323,10.5911323 C26.6393098,11.0423504 26.7719414,11.5330872 26.9310992,12.0506211 L28.5496105,17.476606 L31.5742872,17.476606 L33.1929338,12.0506211 C33.3388286,11.5330872 33.4714602,11.0423504 33.5775654,10.5911323 C33.683806,10.140185 33.7766481,9.68910226 33.8295654,9.30433534 C33.8562271,9.72889173 33.8827534,10.1667113 33.9225429,10.5911323 C33.9492045,11.0158241 33.9888586,11.4536436 34.0286481,11.8780647 L34.6521519,17.476606 L39.6404526,17.4898692 L37.3984376,3.34768872 Z" id="Fill-14" fill="#FEFEFE"></path>
                <path d="M20.4835128,12.7006511 L20.4569865,12.7271774 C19.5150316,12.7404406 18.5598135,12.6741248 17.6178586,12.5547564 L15.6148511,9.17170376 C12.5635128,8.40230526 9.75091128,6.90329774 7.41605414,4.80704211 L4.97495639,8.99928271 C8.66306165,12.1832526 13.4124902,13.8680797 18.2812872,13.7089218 C19.077212,13.6823955 19.8732722,13.6028165 20.6560692,13.4834481 C20.8274075,13.4582752 20.9976632,13.4283654 21.1679188,13.3983203 L21.2904,12.6814331 C21.0218887,12.6929368 20.7529714,12.7006511 20.4835128,12.7006511" id="Fill-16" fill="#F9D036"></path>
                <path d="M21.2904541,12.6814195 L21.1678376,13.3983068 C22.789191,13.1128782 24.3557323,12.6155098 25.8566346,11.9312391 C24.3648,12.3605323 22.8346647,12.6149684 21.2904541,12.6814195" id="Fill-18" fill="#F9D036"></path>
                <path d="M15.6147429,9.17174436 C12.5766677,8.38908271 9.7642015,6.88993985 7.41594586,4.80708271 L6.24851729,6.77057143 C9.27332932,9.91475188 13.2798857,11.9576842 17.6047579,12.5680602 L15.6147429,9.17174436 Z" id="Fill-20" fill="#F9D036"></path>
                <path d="M9.16716992,1.80881053 C10.1887038,2.71097594 11.329606,3.45384812 12.5767489,4.02429925 L10.2152301,0.0178781955 L9.16716992,1.80881053 Z" id="Fill-22" fill="#F9D036"></path>
            </g>
        </g>
    </g>
</svg>