<?xml version="1.0" encoding="utf-8"?>
<!-- Generator: Adobe Illustrator 19.2.1, SVG Export Plug-In . SVG Version: 6.00 Build 0)  -->
<svg version="1.1" id="layer" xmlns="http://www.w3.org/2000/svg" xmlns:xlink="http://www.w3.org/1999/xlink" x="0px" y="0px"
	 viewBox="0 0 652 652" style="enable-background:new 0 0 652 652;" xml:space="preserve">
<style type="text/css">
	.st0{fill:#1D1D1B;}
	.st1{fill:url(#SVGID_1_);}
	.st2{fill:url(#SVGID_2_);}
	.st3{fill:url(#SVGID_3_);}
	.st4{fill:url(#SVGID_4_);}
	.st5{fill:url(#SVGID_5_);}
</style>
<path class="st0" d="M287.8,390.4l-4.7-42.2c-0.3-3.2-0.6-6.5-0.8-9.7c-0.3-3.2-0.5-6.5-0.7-9.7c-0.4,2.9-1.1,6.3-1.9,9.7
	c-0.8,3.4-1.8,7.1-2.9,11l-12.2,40.9h-22.8l-12.2-40.9c-1.2-3.9-2.2-7.6-2.9-11c-0.8-3.4-1.4-6.6-1.8-9.7c-0.3,3.3-0.5,6.5-0.8,9.8
	c-0.3,3.2-0.6,6.4-0.8,9.6l-4.7,42.2h-37.7L199.1,284h39.5l7.6,26.3c0.2,0.8,0.6,2.1,1.1,3.7c2.7,9,4.7,18.1,5.8,27.4h0.6
	c0.6-4.5,1.5-9.3,2.6-14.4c1.2-5.1,2.7-10.8,4.7-17.2l8-25.9h39.5l16.9,106.6L287.8,390.4z"/>
<polygon class="st0" points="335.7,390.4 335.7,283.9 407,283.9 407,312.9 373.2,312.9 373.2,323 403.9,323 403.9,350.4 
	373.2,350.4 373.2,361.4 407.9,361.4 407.9,390.4 "/>
<path class="st0" d="M423.3,390.4V284h48.2c14,0,24.6,3.1,32,9.2s11.1,15,11,26.6c0.3,6.7-1.7,13.3-5.6,18.8c-3.6,4.8-9,7.9-15,8.6
	l28.4,43.3h-42.8l-18.8-35.1v35.1L423.3,390.4z M460.8,311.2v21h6c3.1,0.2,6.1-0.8,8.5-2.7c2-2,3.1-4.8,2.9-7.7
	c0.2-2.9-0.9-5.8-2.9-7.9c-2.4-2-5.4-2.9-8.5-2.7L460.8,311.2z"/>
<path class="st0" d="M528.8,341.7V284H567v58c0,6.8,0.8,11.4,2.4,13.9c1.8,2.7,5,4.2,8.2,3.8c3.3,0.3,6.4-1.2,8.3-3.9
	c2-4.3,2.9-9.1,2.5-13.9v-58h38.1v57.8c0.1,6.3-0.4,12.5-1.4,18.7c-0.8,4.4-2.4,8.5-4.8,12.3c-4.3,6.7-10.4,12-17.5,15.3
	c-16.1,7.1-34.5,7.1-50.6,0c-7.2-3.3-13.3-8.6-17.5-15.3c-2.3-3.7-3.9-7.8-4.6-12.1C529.1,354.3,528.7,348,528.8,341.7z"/>
<polygon class="st0" points="103.6,258.8 181.3,390.4 26.6,390.4 "/>
<linearGradient id="SVGID_1_" gradientUnits="userSpaceOnUse" x1="132.944" y1="313.041" x2="216.6223" y2="313.041" gradientTransform="matrix(1 0 0 -1 -46.18 593.62)">
	<stop  offset="0" style="stop-color:#FAE76B"/>
	<stop  offset="0.43" style="stop-color:#F29C19"/>
	<stop  offset="1" style="stop-color:#FAD500"/>
</linearGradient>
<path class="st1" d="M86.8,287.6c22.6,13.8,49.7,18.2,75.4,12.3c2.7-0.6,5.5-1.4,8.2-2.2c-2.9,0-5.6,0.2-8.5,0.2
	c-14-0.1-27.8-3.2-40.5-8.9l-17.8-30.2L86.8,287.6z"/>
<linearGradient id="SVGID_2_" gradientUnits="userSpaceOnUse" x1="72.8231" y1="230.3109" x2="227.5242" y2="230.3109" gradientTransform="matrix(1 0 0 -1 -46.18 593.62)">
	<stop  offset="0.1" style="stop-color:#F9D566"/>
	<stop  offset="0.46" style="stop-color:#F29C19"/>
	<stop  offset="0.9" style="stop-color:#FAD100"/>
</linearGradient>
<path class="st2" d="M181.3,390.4c-46.8,0-91.5-19.7-123.1-54.2l-31.6,54.2H181.3z"/>
<linearGradient id="SVGID_3_" gradientUnits="userSpaceOnUse" x1="110.2927" y1="265.1288" x2="267.6535" y2="265.1288" gradientTransform="matrix(1 0 0 -1 -46.18 593.62)">
	<stop  offset="3.000000e-002" style="stop-color:#FAE76B"/>
	<stop  offset="0.43" style="stop-color:#F29C19"/>
	<stop  offset="1" style="stop-color:#FAD500"/>
</linearGradient>
<path class="st3" d="M180.8,354.6c-7.1,0.1-14.3-0.4-21.4-1.3l-15.1-25.5c-23-5.8-44.2-17.1-61.8-32.9l-18.4,31.6
	c27.8,24,63.6,36.7,100.3,35.5c6-0.2,12-0.8,17.9-1.7c13.6-2,26.7-6,39.2-11.7c-13.2,3.8-26.8,5.8-40.5,5.8L180.8,354.6z"/>
<linearGradient id="SVGID_4_" gradientUnits="userSpaceOnUse" x1="119.9963" y1="269.505" x2="205.6328" y2="269.505" gradientTransform="matrix(1 0 0 -1 -46.18 593.62)">
	<stop  offset="0.1" style="stop-color:#F9CA1D"/>
	<stop  offset="1" style="stop-color:#FAE472"/>
</linearGradient>
<path class="st4" d="M144.3,327.8c-22.9-5.9-44.1-17.2-61.8-32.9l-8.8,14.8c22.8,23.7,53,39.1,85.6,43.7L144.3,327.8z"/>
<linearGradient id="SVGID_5_" gradientUnits="userSpaceOnUse" x1="141.9169" y1="319.7762" x2="167.5786" y2="319.7762" gradientTransform="matrix(1 0 0 -1 -46.18 593.62)">
	<stop  offset="0" style="stop-color:#F5BF23"/>
	<stop  offset="1" style="stop-color:#FAE160"/>
</linearGradient>
<path class="st5" d="M95.7,272.3c7.7,6.8,16.3,12.4,25.7,16.7l-17.8-30.2L95.7,272.3z"/>
</svg>
