<?xml version="1.0" encoding="UTF-8"?>
<svg width="50px" height="23px" viewBox="0 0 50 23" version="1.1" xmlns="http://www.w3.org/2000/svg" xmlns:xlink="http://www.w3.org/1999/xlink">
    <!-- Generator: Sketch 54.1 (76490) - https://sketchapp.com -->
    <title>Fill 1</title>
    <desc>Created with Sketch.</desc>
    <g id="Symbols" stroke="none" stroke-width="1" fill="none" fill-rule="evenodd">
        <g id="MERU-cab-fare-chart" transform="translate(-23.000000, -296.000000)" fill="#191542">
            <path d="M66.5,318 C65.1191759,318 64,316.880824 64,315.5 C64,314.119176 65.1191759,313 66.5,313 C67.8808241,313 69,314.119176 69,315.5 C69,316.880824 67.8808241,318 66.5,318 L66.5,318 Z M63.0150471,306.994181 L55.7842371,306.20856 C55.3377341,306.160196 55,305.797257 55,305.36604 L55,300.848211 C55,300.379195 55.395716,300 55.8832719,300 L58.4518283,300 C58.7125353,300 58.9592758,300.109735 59.1268732,300.300755 L63.7891268,305.604205 C64.3046156,306.190271 63.8090184,307.080344 63.0150471,306.994181 L63.0150471,306.994181 Z M52,306.486376 C52,306.770324 51.7628667,307 51.4696985,307 L44.5294894,307 C44.2371333,307 44,306.770324 44,306.486376 L44,300.513231 C44,300.229676 44.2371333,300 44.5294894,300 L51.4696985,300 C51.7628667,300 52,300.229676 52,300.513231 L52,306.486376 Z M43,306.486376 C43,306.770324 42.7624727,307 42.4697254,307 L35.5298685,307 C35.2371213,307 35,306.770324 35,306.486376 L35,300.513231 C35,300.229676 35.2371213,300 35.5298685,300 L42.4697254,300 C42.7624727,300 43,300.229676 43,300.513231 L43,306.486376 Z M33,306.486376 C33,306.770324 32.7628667,307 32.4696985,307 L25.5294894,307 C25.2371333,307 25,306.770324 25,306.486376 L25,300.513231 C25,300.229676 25.2371333,300 25.5294894,300 L32.4696985,300 C32.7628667,300 33,300.229676 33,300.513231 L33,306.486376 Z M30.5,318 C29.1191759,318 28,316.880824 28,315.5 C28,314.119176 29.1191759,313 30.5,313 C31.8803894,313 33,314.119176 33,315.5 C33,316.880824 31.8803894,318 30.5,318 L30.5,318 Z M70.82388,308.596473 L67.1564541,306.569964 C66.5550806,306.237509 66.0162037,305.800091 65.5658979,305.2782 L60.3373016,299.222509 C58.5696031,297.175091 56.012214,296 53.3227959,296 L26.1326878,296 C24.4022389,296 23,297.417218 23,299.165636 L23,312.590945 C23,314.259909 24.3389147,315.612727 25.9907256,315.612309 L26.884715,315.611891 C27.1616034,317.527582 28.7902369,319 30.7632218,319 C32.7366206,319 34.365668,317.526745 34.6421425,315.6098 L62.1426635,315.601855 C62.415827,317.522564 64.0465298,319 66.0228258,319 C67.9995357,319 69.6310664,317.521309 69.903402,315.600182 L70.9956419,315.599764 C72.0849845,315.599345 72.9711101,314.714473 72.9843544,313.614236 L72.9996681,312.357182 C73.0191206,310.793182 72.1822472,309.346273 70.82388,308.596473 L70.82388,308.596473 Z" id="Fill-1"></path>
        </g>
    </g>
</svg>