<?xml version="1.0" encoding="UTF-8"?>
<svg width="54px" height="18px" viewBox="0 0 54 18" version="1.1" xmlns="http://www.w3.org/2000/svg" xmlns:xlink="http://www.w3.org/1999/xlink">
    <!-- Generator: Sketch 54.1 (76490) - https://sketchapp.com -->
    <title>Group 3</title>
    <desc>Created with Sketch.</desc>
    <defs>
        <polygon id="path-1" points="0 0 54 0 54 18 0 18"></polygon>
    </defs>
    <g id="Symbols" stroke="none" stroke-width="1" fill="none" fill-rule="evenodd">
        <g id="MERU-cab-fare-chart" transform="translate(-21.000000, -130.000000)">
            <g id="Group-3" transform="translate(21.000000, 130.000000)">
                <mask id="mask-2" fill="white">
                    <use xlink:href="#path-1"></use>
                </mask>
                <g id="Clip-2"></g>
                <path d="M44.02338,16.433825 C42.7028487,16.433825 41.63249,15.3525326 41.63249,14.0194051 C41.63249,12.6858778 42.7028487,11.6049852 44.02338,11.6049852 C45.3439113,11.6049852 46.41427,12.6858778 46.41427,14.0194051 C46.41427,15.3525326 45.3439113,16.433825 44.02338,16.433825 L44.02338,16.433825 Z M22.8394616,5.78039707 L22.8394616,1.41485409 C26.948309,1.81619143 31.9141557,3.14412237 35.7799556,6.1409611 C35.8163731,6.16894279 29.0866513,5.97027281 22.8394616,5.78039707 L22.8394616,5.78039707 Z M21.9737536,5.7536146 C19.3643585,5.67406666 16.9030086,5.59811637 15.1292374,5.54295247 L15.1292374,2.01446168 C15.4534326,1.88494644 15.8156286,1.7658244 16.2205757,1.66029346 C17.4567925,1.33850405 19.5274457,1.17661 21.9737536,1.34410039 L21.9737536,5.7536146 Z M14.2635294,5.51617 C13.1064811,5.4797938 12.4058396,5.45780819 12.4058396,5.45780819 C12.4058396,5.45780819 12.085207,3.69456214 14.2635294,2.43138882 L14.2635294,5.51617 Z M10.0446378,16.433825 C8.72410653,16.433825 7.65374784,15.3525326 7.65374784,14.0194051 C7.65374784,12.6858778 8.72410653,11.6049852 10.0446378,11.6049852 C11.3651691,11.6049852 12.4355278,12.6858778 12.4355278,14.0194051 C12.4355278,15.3525326 11.3651691,16.433825 10.0446378,16.433825 L10.0446378,16.433825 Z M53.2837243,9.03666602 C51.8765035,7.78028825 38.3679752,5.12082873 38.3679752,5.12082873 C38.3679752,5.12082873 22.3343664,-5.6609152 6.6977877,4.06471989 C5.70699341,4.68071675 1.60527127,4.48724337 1.23278328,4.88378386 C0.583601238,5.57613075 -0.498632726,12.9341153 0.259010217,13.8447194 C0.459306627,14.0857617 3.9811192,14.6114176 6.22633904,14.9252123 C6.63247366,16.6864596 8.19328145,18 10.061659,18 C11.8112838,18 13.2921314,16.8483537 13.8075186,15.2553962 C20.4386756,15.3429389 31.5670017,15.4720544 40.3772728,15.4832471 C40.9552032,16.9566828 42.3758827,18 44.0404012,18 C45.7156076,18 47.1430164,16.9430917 47.7138216,15.4552654 C51.2221755,15.4144921 53.5180632,15.3285483 53.6261283,15.174649 C54.3655624,14.1181405 53.8782801,9.56791834 53.2837243,9.03666602 L53.2837243,9.03666602 Z" id="Fill-1" fill="#1A1543" mask="url(#mask-2)"></path>
            </g>
        </g>
    </g>
</svg>