<?xml version="1.0" encoding="UTF-8"?>
<svg width="54px" height="21px" viewBox="0 0 54 21" version="1.1" xmlns="http://www.w3.org/2000/svg" xmlns:xlink="http://www.w3.org/1999/xlink">
    <!-- Generator: Sketch 54.1 (76490) - https://sketchapp.com -->
    <title>Group 3</title>
    <desc>Created with Sketch.</desc>
    <defs>
        <polygon id="path-1" points="0 0 54 0 54 21 0 21"></polygon>
    </defs>
    <g id="Symbols" stroke="none" stroke-width="1" fill="none" fill-rule="evenodd">
        <g id="MERU-cab-fare-chart" transform="translate(-21.000000, -212.000000)">
            <g id="Group-3" transform="translate(21.000000, 212.000000)">
                <mask id="mask-2" fill="white">
                    <use xlink:href="#path-1"></use>
                </mask>
                <g id="Clip-2"></g>
                <path d="M7.13034327,2.09763011 C7.32202784,2.00699016 9.54368337,1.77920803 13.3325959,1.66255836 L13.3325959,6.33327426 C11.572476,6.14450671 6.04858242,5.5155443 5.84707795,5.03002945 C5.66874846,4.60126309 6.45276975,2.41959896 7.13034327,2.09763011 L7.13034327,2.09763011 Z M7.04864165,17.0918419 C7.04864165,15.7826858 8.10644193,14.7214103 9.41170384,14.7214103 C10.7161802,14.7214103 11.7739804,15.7826858 11.7739804,17.0918419 C11.7739804,18.4006039 10.7161802,19.4622736 9.41170384,19.4622736 C8.10644193,19.4622736 7.04864165,18.4006039 7.04864165,17.0918419 L7.04864165,17.0918419 Z M14.8291496,1.62433195 C17.687135,1.56561302 21.2533321,1.57349476 25.3800494,1.72640041 L25.3800494,6.97208884 L14.8291496,6.43810133 L14.8291496,1.62433195 Z M26.8766031,1.79812419 C27.913978,1.91477386 31.341518,2.50708622 34.9509226,4.10589607 L34.9509226,7.45681552 L26.8766031,7.04775349 L26.8766031,1.79812419 Z M36.4470835,4.823528 C37.9397092,5.60224338 39.4111239,6.56420908 40.7061731,7.74804561 L36.4470835,7.53248017 L36.4470835,4.823528 Z M42.0432516,17.0918419 C42.0432516,15.7826858 43.100659,14.7214103 44.4055281,14.7214103 C45.7103973,14.7214103 46.7681975,15.7826858 46.7681975,17.0918419 C46.7681975,18.4006039 45.7103973,19.4622736 44.4055281,19.4622736 C43.100659,19.4622736 42.0432516,18.4006039 42.0432516,17.0918419 L42.0432516,17.0918419 Z M0.00187709031,14.6142187 C0.0725804137,15.6514549 4.77788658,17.1170635 4.77788658,17.1170635 C4.77788658,17.1170635 5.04420243,17.1198221 5.53480494,17.1249452 C5.55248077,19.2675947 7.28785456,21 9.42820128,21 C11.5441946,21 13.2626782,19.3054271 13.3184552,17.1958808 C20.8228274,17.2593288 31.8662937,17.337752 40.5396275,17.3397225 C40.6676791,19.3818799 42.354739,21 44.4220256,21 C46.4999177,21 48.1920839,19.3669046 48.3067804,17.3113482 C51.6235519,17.2802154 53.763113,17.2199201 53.8943069,17.1170635 C54.2545011,16.8360796 53.6193496,12.7462476 53.1102856,11.3957124 C52.004957,8.46291893 42.8449487,6.88972472 42.8449487,6.88972472 C35.7875786,1.59713996 28.5491295,0.397539963 27.3754543,0.31005271 C24.0252952,0.0594135508 5.66639168,-0.408761482 4.06456861,0.738819069 C2.06877091,2.16935389 -0.0723613992,13.5415146 0.00187709031,14.6142187 L0.00187709031,14.6142187 Z" id="Fill-1" fill="#191542" mask="url(#mask-2)"></path>
            </g>
        </g>
    </g>
</svg>